<svg width="32" height="32" viewBox="0 0 32 32" fill="none" xmlns="http://www.w3.org/2000/svg">
<path d="M2.77513 28.9048C1.24493 28.9048 0 27.6898 0 26.1965V15.0534C0 13.8773 0.771841 12.8429 1.92059 12.4795L28.289 4.13441C28.5709 4.04522 28.8614 4 29.1523 4C30.6825 4 31.9275 5.21496 31.9275 6.70834L32 19.7559L3.71098 28.7085C3.42907 28.7977 3.0661 28.9048 2.77526 28.9048H2.77513Z" fill="#0E0E0E"/>
<path d="M4.21753 26.4701L3 15.0202L5.21604 14.3008L5.84091 21.5752L6.47867 13.8909L8.59164 13.205L9.19719 20.4857L9.80273 12.8118L12.0445 12.084L10.8077 24.3308L8.08916 25.2133L7.52227 19.6968L6.98114 25.573L4.21753 26.4701ZM12.5494 23.7653V11.9201L17.0846 10.4479V12.7361L14.8557 13.4597V15.7682L16.9944 15.0739V17.3016L14.8557 17.9959V20.7082L17.2328 19.9365V22.245L12.5494 23.7653ZM17.8085 22.058V10.2128L20.8813 9.2153C21.7059 8.94761 22.305 8.964 22.6787 9.26447C23.0566 9.55906 23.2455 10.1887 23.2455 11.1533V11.6716C23.2455 12.2279 23.1489 12.7102 22.9557 13.1185C22.7667 13.5253 22.4768 13.846 22.086 14.0805C22.5971 14.0492 22.9385 14.2547 23.1103 14.697C23.2863 15.1334 23.3744 15.7083 23.3744 16.4217C23.3744 17.1889 23.3057 17.882 23.1682 18.5009C23.0308 19.1199 22.7817 19.6472 22.421 20.0828C22.0602 20.5185 21.547 20.8444 20.8813 21.0605L17.8085 22.058ZM20.0246 13.9556L20.4884 13.805C20.6988 13.7367 20.8341 13.6075 20.8942 13.4175C20.9544 13.2275 20.9844 13.0136 20.9844 12.7758V11.5845C20.9844 11.2031 20.8234 11.0647 20.5013 11.1693L20.0246 11.3241V13.9556ZM20.25 19.1791C20.8384 18.9881 21.1326 18.6009 21.1326 18.0176V16.537C21.1326 16.2005 21.0832 15.9518 20.9844 15.7909C20.8899 15.6242 20.7096 15.584 20.4433 15.6705L20.0246 15.8064V19.2388C20.119 19.2171 20.1942 19.1972 20.25 19.1791ZM26.559 19.3519C25.5583 19.6768 24.8304 19.6372 24.3752 19.2331C23.9199 18.829 23.6923 18.0706 23.6923 16.9578V15.7195L26.0179 14.9645V16.2096C26.0179 16.5237 26.0544 16.7788 26.1274 16.975C26.2047 17.1652 26.3743 17.2178 26.6363 17.1328C26.9026 17.0463 27.0722 16.8746 27.1452 16.6176C27.2182 16.3561 27.2547 15.9584 27.2547 15.4245V15.1283C27.2547 14.72 27.1882 14.3849 27.055 14.1231C26.9262 13.8598 26.6707 13.7902 26.2884 13.9143C26.2412 13.9296 26.1982 13.9458 26.1596 13.9628C26.1252 13.974 26.0952 13.986 26.0694 13.9988V11.8721C26.4602 11.7452 26.7587 11.5586 26.9648 11.3122C27.171 11.0613 27.2741 10.7227 27.2741 10.2965C27.2741 9.62794 27.0894 9.35361 26.72 9.47351C26.4795 9.55159 26.3163 9.70328 26.2305 9.92858C26.1489 10.148 26.1081 10.408 26.1081 10.7086V11.0654L23.7632 11.8266C23.7589 11.7741 23.7546 11.7105 23.7503 11.6356C23.7503 11.5593 23.7503 11.4853 23.7503 11.4135C23.7503 10.3277 23.9929 9.4525 24.4782 8.78794C24.9635 8.12339 25.7065 7.62869 26.7072 7.30385C28.6398 6.67646 29.606 7.41268 29.606 9.51251C29.606 10.0958 29.5309 10.6025 29.3806 11.0327C29.2303 11.4584 28.9511 11.8137 28.5431 12.0987C28.8652 12.1557 29.1036 12.2847 29.2582 12.4858C29.4128 12.6869 29.5137 12.9659 29.561 13.323C29.6082 13.6801 29.6318 14.1233 29.6318 14.6528C29.6318 15.8373 29.3935 16.8277 28.9168 17.6241C28.4443 18.4191 27.6584 18.995 26.559 19.3519Z" fill="white"/>
</svg>
