<svg width="194" height="42" viewBox="0 0 194 42" fill="none" xmlns="http://www.w3.org/2000/svg">
<g clip-path="url(#clip0_81_634)">
<path d="M2.69194 30.4736C1.35246 30.4736 0.262695 29.3815 0.262695 28.0394V18.0243C0.262695 16.9673 0.938337 16.0376 1.94391 15.711L49.1658 0.371778C49.4126 0.291615 49.6669 0.250977 49.9215 0.250977C51.261 0.250977 52.3508 1.34295 52.3508 2.68515L52.4143 14.4119L3.51115 30.2971C3.26437 30.3773 2.94664 30.4736 2.69206 30.4736H2.69194Z" fill="#0E0E0E"/>
<path d="M49.9213 0C51.3996 0 52.6014 1.20463 52.6014 2.6852H52.6014L52.6649 14.4106C52.6655 14.5198 52.5954 14.617 52.4915 14.6507L3.58843 30.536C3.34806 30.614 2.9927 30.7246 2.6919 30.7246H2.69178C1.2135 30.7246 0.0117188 29.5199 0.0117188 28.0394V18.0244C0.011722 16.8584 0.75752 15.8325 1.86631 15.4722L1.94374 15.711C0.93817 16.0377 0.262536 16.9673 0.262533 18.0244V28.0394C0.262533 29.3815 1.3523 30.4736 2.69178 30.4736H2.6919L2.71593 30.4733C2.95011 30.468 3.2327 30.3865 3.46391 30.3124L3.511 30.2972L52.4141 14.4119L52.3506 2.6852C52.3506 1.343 51.2608 0.251032 49.9213 0.251032C49.6667 0.251033 49.4124 0.291666 49.1656 0.371828L1.94371 15.711L1.86631 15.4722L49.0882 0.133054C49.3595 0.0449217 49.6399 8.14698e-07 49.9213 0Z" fill="white"/>
<path d="M73.7333 7.45266L9.88184 28.2172V39.4908C9.88184 41.1938 11.5421 42.4011 13.1603 41.8748L75.2812 21.673C76.3131 21.3374 77.0118 20.375 77.0118 19.289V9.83667C77.0118 8.13371 75.3516 6.92642 73.7333 7.45266Z" fill="#FF1516"/>
<path d="M4.75009 27.3613L3.66992 17.6451L5.63595 17.0057L6.19032 23.1805L6.75612 16.6414L8.6307 16.0318L9.16793 22.2122L9.70516 15.6824L11.694 15.0356L10.5967 25.4599L8.18492 26.2442L7.68198 21.5628L7.20191 26.5639L4.75009 27.3613ZM12.142 24.9574V14.89L16.1655 13.5815V15.5263L14.188 16.1694V18.1314L16.0855 17.5144V19.4077L14.188 20.0248V22.33L16.2969 21.6442V23.6062L12.142 24.9574ZM16.8077 23.4401V13.3726L19.5339 12.4861C20.2654 12.2482 20.7969 12.2546 21.1284 12.5052C21.4637 12.7508 21.6313 13.2836 21.6313 14.1035V14.5439C21.6313 15.0168 21.5456 15.4279 21.3742 15.7773C21.2065 16.1255 20.9493 16.4017 20.6026 16.606C21.056 16.5729 21.3589 16.7432 21.5113 17.117C21.6675 17.4856 21.7456 17.9732 21.7456 18.5795C21.7456 19.2316 21.6847 19.8215 21.5628 20.3493C21.4408 20.8771 21.2198 21.3284 20.8998 21.7032C20.5797 22.078 20.1244 22.3615 19.5339 22.5535L16.8077 23.4401ZM18.7737 16.5257L19.1852 16.3919C19.3719 16.3312 19.492 16.2197 19.5453 16.0575C19.5986 15.8952 19.6253 15.713 19.6253 15.5109V14.4984C19.6253 14.1743 19.4824 14.0587 19.1967 14.1516L18.7737 14.2892V16.5257ZM18.9738 20.9624C19.4958 20.7927 19.7568 20.4599 19.7568 19.9642V18.7057C19.7568 18.4197 19.7129 18.209 19.6253 18.0735C19.5415 17.933 19.3815 17.9011 19.1452 17.978L18.7737 18.0988V21.016C18.8576 20.9964 18.9242 20.9785 18.9738 20.9624ZM24.571 21.0299C23.6832 21.3186 23.0374 21.294 22.6335 20.9563C22.2296 20.6186 22.0277 19.9769 22.0277 19.0312V17.9787L24.0909 17.3077V18.3659C24.0909 18.6329 24.1233 18.8493 24.188 19.015C24.2566 19.1758 24.4071 19.2184 24.6395 19.1428C24.8758 19.066 25.0263 18.9179 25.091 18.6985C25.1558 18.4753 25.1882 18.1368 25.1882 17.683V17.4314C25.1882 17.0843 25.1291 16.8004 25.011 16.5795C24.8967 16.3573 24.67 16.3014 24.3309 16.4117C24.289 16.4253 24.2509 16.4396 24.2166 16.4546C24.1861 16.4645 24.1595 16.4751 24.1366 16.4863V14.6787C24.4833 14.566 24.7481 14.4036 24.931 14.1916C25.1139 13.9758 25.2053 13.6867 25.2053 13.3244C25.2053 12.7562 25.0415 12.5254 24.7138 12.632C24.5005 12.7014 24.3557 12.8323 24.2795 13.0249C24.2071 13.2124 24.1709 13.4339 24.1709 13.6894V13.9926L22.0906 14.6692C22.0868 14.6246 22.0829 14.5706 22.0791 14.507C22.0791 14.4422 22.0791 14.3792 22.0791 14.3182C22.0791 13.3954 22.2944 12.6485 22.7249 12.0775C23.1555 11.5066 23.8146 11.0768 24.7024 10.7881C26.417 10.2305 27.2742 10.8441 27.2742 12.6288C27.2742 13.1245 27.2076 13.5561 27.0742 13.9236C26.9408 14.2873 26.6932 14.5929 26.3312 14.8402C26.617 14.8846 26.8284 14.9912 26.9656 15.1602C27.1028 15.3291 27.1923 15.565 27.2342 15.8679C27.2761 16.1708 27.2971 16.5472 27.2971 16.9972C27.2971 18.004 27.0856 18.8488 26.6627 19.5316C26.2436 20.2132 25.5463 20.7127 24.571 21.0299Z" fill="white"/>
<path d="M47.2692 3.44517H47.2688C46.9058 3.42677 46.4899 3.49991 46.0133 3.65489C45.224 3.91156 44.604 4.35264 44.1794 4.97054C43.7546 5.58879 43.5463 6.35276 43.5463 7.24233C43.5463 8.11826 43.9294 8.82303 44.6546 9.27197L45.5568 9.83587L45.5576 9.83641C45.8169 9.99683 46.016 10.1433 46.1519 10.2695C46.279 10.3876 46.3635 10.5195 46.4139 10.6748C46.4647 10.8318 46.4954 11.0617 46.4954 11.3571C46.4954 11.5815 46.4592 11.7378 46.4144 11.8202C46.3729 11.8965 46.2992 11.9591 46.1504 12.0074C46.0847 12.0288 46.0445 12.0279 46.0317 12.0252C46.0189 12.0225 46.0256 12.028 46.0158 12.013V12.0126C45.9816 11.96 45.9431 11.8241 45.9431 11.612V10.3535L45.6762 10.1595L43.6873 10.8063L43.5465 11.0004V11.9842C43.5465 13.011 43.7463 13.7412 44.2315 14.1305C44.7195 14.5222 45.4606 14.514 46.408 14.2059C47.3091 13.9129 47.9688 13.4132 48.3449 12.7128C48.713 12.0273 48.8921 11.1948 48.8921 10.2239C48.8921 9.73771 48.8325 9.33504 48.6996 9.01135C48.5723 8.70139 48.4002 8.43982 48.182 8.2346C47.9781 8.04282 47.7544 7.8708 47.5117 7.71856L47.5106 7.71784L46.3515 6.98043L46.3501 6.97952C46.1421 6.84967 46.019 6.7256 45.9695 6.63515V6.63484C45.9072 6.52134 45.8803 6.41702 45.8803 6.31259C45.8803 6.20741 45.9054 6.12336 45.9585 6.04195C46.004 5.97241 46.0751 5.91706 46.2024 5.87568C46.302 5.84329 46.3336 5.85634 46.3453 5.86391C46.3534 5.86917 46.37 5.87706 46.37 5.97508V6.6672L46.6368 6.86123L48.6828 6.19584L48.8237 6.0018C48.8237 4.97267 48.6339 4.23015 48.1798 3.80007C47.9469 3.57962 47.6322 3.46343 47.2692 3.44503L47.2692 3.44517ZM47.2483 3.85242V3.8528C47.5396 3.86756 47.7454 3.95106 47.8993 4.09678C48.2017 4.38321 48.3925 4.96464 48.4119 5.85517L46.7773 6.3867V5.97541C46.7773 5.79931 46.7156 5.61895 46.5677 5.52232L46.5673 5.522C46.4226 5.42794 46.2429 5.43364 46.0761 5.48787C45.8833 5.55055 45.7202 5.66107 45.617 5.819C45.5216 5.96513 45.4724 6.13604 45.4724 6.31291C45.4724 6.49066 45.5215 6.66667 45.6118 6.83134C45.7146 7.01936 45.8924 7.17494 46.1342 7.32592L47.2929 8.06308L47.294 8.0638C47.5156 8.20268 47.7183 8.35869 47.9027 8.53216C48.0732 8.69249 48.2135 8.90136 48.3224 9.16667C48.4257 9.41828 48.4843 9.77224 48.4843 10.2241C48.4843 11.1448 48.3148 11.9071 47.9857 12.5199C47.6645 13.1179 47.1107 13.5485 46.282 13.818C45.3928 14.1072 44.81 14.072 44.4865 13.8124C44.16 13.5504 43.9541 12.9559 43.9541 11.9844V11.1487L45.5353 10.6346V11.6122C45.5353 11.8653 45.5671 12.0706 45.6739 12.2351C45.7346 12.3286 45.8379 12.4013 45.9479 12.4244C46.0579 12.4475 46.1668 12.431 46.2764 12.3953C46.4933 12.3248 46.6729 12.1983 46.7725 12.0151C46.8686 11.8383 46.903 11.6208 46.903 11.357C46.903 11.0346 46.8726 10.7679 46.8017 10.5488V10.5485C46.7301 10.3278 46.6031 10.1318 46.4293 9.97026C46.2642 9.81696 46.0463 9.6589 45.7727 9.48964L44.8698 8.92525L44.8691 8.92468C44.2454 8.53859 43.954 8.00602 43.954 7.24205C43.954 6.41564 44.1438 5.74228 44.5154 5.2015C44.887 4.66062 45.4197 4.27669 46.1392 4.04268C46.5847 3.89783 46.9569 3.83765 47.2483 3.85242ZM43.4622 4.57046L41.5475 5.19307L41.4076 5.36823L40.935 10.4494L40.4186 5.81795L40.1531 5.64659L38.2385 6.26921L38.0993 6.48923L38.1034 6.5219L37.9105 6.38161L33.8871 7.69003L33.7462 7.88406V17.9515L34.013 18.1455L38.168 16.7943L38.3088 16.6003V14.6383L38.042 14.4442L36.1999 15.0433V13.1671L37.9565 12.5959L38.0973 12.4018V10.5085L37.8305 10.3145L36.1999 10.8447V9.31174L38.0365 8.71444L38.1774 8.52047V7.09799L39.3395 16.159L39.6047 16.3271L42.3479 15.435L42.4874 15.2649L43.7275 4.78845L43.4622 4.57046ZM43.2852 5.05701L42.0979 15.0872L39.7126 15.863L38.5252 6.605L40.0412 6.11201L40.7508 12.4762L41.1563 12.4724L41.8011 5.53965L43.2852 5.05701ZM37.7697 6.8564V8.37221L35.9331 8.96952L35.7922 9.16349V11.1255L36.059 11.3196L37.6897 10.7893V12.2536L35.9331 12.8249L35.7922 13.0189V15.3241L36.059 15.5181L37.9011 14.9191V16.452L34.1539 17.6707V8.03231L37.7697 6.8564ZM32.0632 8.45078C31.757 8.43638 31.4112 8.49518 31.0331 8.61816L28.2669 9.51773L28.126 9.71176V19.7792L28.3928 19.9732L31.0904 19.096C31.9611 18.8128 32.5982 18.3288 32.9591 17.6501C33.3126 16.9854 33.483 16.1609 33.483 15.1837V10.4704C33.483 9.66411 33.2921 9.06128 32.8553 8.72284C32.6359 8.55286 32.3694 8.46525 32.0632 8.45084V8.45078ZM32.0319 8.8565C32.2706 8.86608 32.4594 8.93211 32.6057 9.04545C32.9005 9.27383 33.0754 9.72845 33.0754 10.4704V15.1837C33.0754 16.1133 32.9124 16.8694 32.5992 17.4584C32.2932 18.034 31.7625 18.4484 30.9644 18.7079L28.5337 19.4984V9.86002L31.159 9.00623C31.5047 8.89381 31.7932 8.84693 32.0319 8.8565ZM30.9949 10.4641C30.9655 10.4625 30.9359 10.4629 30.9064 10.4646C30.7882 10.4715 30.6605 10.5011 30.513 10.5491L30.2901 10.6216L30.1493 10.8156V17.3423L30.4161 17.5363L30.7647 17.4229C30.9778 17.3536 31.1563 17.2427 31.2788 17.0841C31.4013 16.9254 31.4599 16.7253 31.4599 16.511V11.3171C31.4599 11.1402 31.449 10.9941 31.4215 10.8698C31.3939 10.7455 31.3541 10.632 31.2452 10.5491C31.1689 10.4911 31.083 10.4687 30.9949 10.4641L30.9949 10.4641ZM30.9568 10.8713C30.9796 10.8717 30.9907 10.8744 30.9942 10.8752C30.9988 10.8844 31.0126 10.9094 31.0234 10.9582C31.0407 11.0358 31.0522 11.1584 31.0522 11.3171V16.5109C31.0522 16.6551 31.0184 16.7538 30.9562 16.8345C30.8939 16.9151 30.7951 16.984 30.6387 17.0348L30.5568 17.0614V10.9639L30.6389 10.9371C30.7657 10.8959 30.8662 10.8757 30.9299 10.872C30.9402 10.8714 30.9492 10.8712 30.9568 10.8713Z" fill="#FFDB30"/>
<path d="M15.6356 38.7118C14.7973 38.9844 14.1801 38.9506 13.7838 38.6104C13.3876 38.2664 13.1895 37.6368 13.1895 36.7216V29.3484L15.144 28.7127V36.0059C15.144 36.1737 15.1536 36.3327 15.1726 36.4828C15.1917 36.6291 15.2355 36.7407 15.3041 36.8176C15.3727 36.8944 15.4831 36.9081 15.6356 36.8585C15.7918 36.8077 15.9042 36.7235 15.9727 36.6059C16.0413 36.4844 16.0832 36.343 16.0985 36.1817C16.1175 36.0192 16.1271 35.854 16.1271 35.6862V28.393L18.0817 27.7574V35.1307C18.0817 36.0459 17.8835 36.8043 17.4873 37.4061C17.091 38.004 16.4738 38.4392 15.6356 38.7118ZM18.8532 37.5739V27.5065L20.9221 26.8337L21.848 31.3547V26.5326L23.7911 25.9007V35.9681L21.8251 36.6075L20.8192 31.9009V36.9346L18.8532 37.5739ZM24.6827 35.6782V25.6107L27.4488 24.7112C28.1728 24.4757 28.7176 24.5007 29.0834 24.7859C29.4492 25.0674 29.632 25.5952 29.632 26.3693V31.0827C29.632 32.0361 29.4644 32.8266 29.1291 33.4542C28.7976 34.0807 28.2147 34.5295 27.3803 34.8009L24.6827 35.6782ZM26.7059 33.2412L27.0545 33.1279C27.4241 33.0077 27.6089 32.7684 27.6089 32.4099V27.216C27.6089 26.8804 27.5631 26.6798 27.4717 26.6143C27.3841 26.5436 27.2031 26.5529 26.9288 26.6421L26.7059 26.7146V33.2412ZM30.455 33.801V23.7335L34.4785 22.4251V24.3699L32.5011 25.013V26.975L34.3985 26.358V28.2513L32.5011 28.8684V31.1736L34.61 30.4878V32.4498L30.455 33.801ZM35.2729 32.2342V22.1667L38.3591 21.1631C38.8735 20.9958 39.2621 20.9877 39.525 21.1386C39.7879 21.2857 39.9632 21.5567 40.0508 21.9515C40.1423 22.3412 40.188 22.8202 40.188 23.3884C40.188 23.9375 40.1175 24.399 39.9765 24.7728C39.8394 25.1453 39.5784 25.4571 39.1935 25.7081C39.5098 25.6701 39.7308 25.7565 39.8565 25.9673C39.9861 26.173 40.0508 26.4742 40.0508 26.8708V30.6804L38.0677 31.3253V27.3842C38.0677 27.0905 38.0067 26.9292 37.8848 26.9002C37.7667 26.8662 37.5742 26.8925 37.3075 26.9792V31.5725L35.2729 32.2342ZM37.319 25.2309L37.8048 25.0729C38.0829 24.9825 38.222 24.6341 38.222 24.0277C38.222 23.6349 38.1915 23.3875 38.1305 23.2852C38.0696 23.183 37.9553 23.1592 37.7876 23.2137L37.319 23.3661V25.2309ZM42.9256 29.837C41.4891 30.3042 40.7709 29.5081 40.7709 27.4489V23.1073C40.7709 21.2273 41.5939 20.0196 43.2399 19.4843C43.9181 19.2638 44.4382 19.2319 44.8001 19.3888C45.1621 19.5418 45.4117 19.8573 45.5488 20.3351C45.686 20.8129 45.7546 21.4275 45.7546 22.1787L43.7886 22.8181V21.9257C43.7886 21.7084 43.7581 21.5371 43.6971 21.4121C43.64 21.2819 43.518 21.2472 43.3313 21.3079C43.0989 21.3835 42.9446 21.5119 42.8684 21.693C42.796 21.8729 42.7598 22.0563 42.7598 22.2431V27.1224C42.7598 27.3931 42.7941 27.6032 42.8627 27.7525C42.9351 27.8967 43.0742 27.9354 43.2799 27.8685C43.4933 27.7991 43.6342 27.6693 43.7028 27.4793C43.7752 27.2841 43.8114 27.0474 43.8114 26.769V25.3332L43.2742 25.5079V23.769L45.7317 22.9698V28.8329L44.9259 29.095L44.583 28.3599C44.2324 29.0993 43.68 29.5917 42.9256 29.837ZM46.5261 28.5746V18.5072L49.6123 17.5035C50.1267 17.3362 50.5153 17.3281 50.7782 17.479C51.0411 17.6261 51.2164 17.8971 51.304 18.2919C51.3955 18.6816 51.4412 19.1606 51.4412 19.7288C51.4412 20.2779 51.3707 20.7394 51.2297 21.1132C51.0926 21.4858 50.8316 21.7975 50.4467 22.0485C50.763 22.0105 50.984 22.0969 51.1097 22.3077C51.2393 22.5134 51.304 22.8146 51.304 23.2112V27.0208L49.3209 27.6657V23.7246C49.3209 23.4309 49.2599 23.2696 49.138 23.2406C49.0199 23.2066 48.8274 23.2329 48.5607 23.3197V27.9129L46.5261 28.5746ZM48.5722 21.5713L49.058 21.4133C49.3361 21.3229 49.4752 20.9745 49.4752 20.3681C49.4752 19.9754 49.4447 19.7279 49.3837 19.6257C49.3228 19.5235 49.2085 19.4996 49.0408 19.5541L48.5722 19.7065V21.5713ZM54.5045 26.0715C53.7006 26.333 53.0853 26.2909 52.6585 25.9454C52.2356 25.5948 52.0241 24.96 52.0241 24.041V19.2589C52.0241 18.3971 52.2337 17.6749 52.6528 17.0925C53.0757 16.5088 53.693 16.085 54.5045 15.821C55.3161 15.5571 55.9314 15.5801 56.3505 15.89C56.7735 16.1986 56.9849 16.7838 56.9849 17.6457V22.4277C56.9849 23.3467 56.7716 24.1197 56.3448 24.7466C55.9219 25.3684 55.3085 25.8101 54.5045 26.0715ZM54.5217 24.2126C54.8265 24.1135 54.9789 23.7684 54.9789 23.1773V18.2637C54.9789 17.768 54.8303 17.5684 54.5331 17.6651C54.1978 17.7741 54.0302 18.0822 54.0302 18.5894V23.4973C54.0302 23.81 54.0683 24.0226 54.1445 24.1351C54.2207 24.2438 54.3464 24.2696 54.5217 24.2126ZM60.1226 24.2445C59.2843 24.5171 58.6671 24.4833 58.2708 24.1431C57.8746 23.7991 57.6765 23.1695 57.6765 22.2543V14.881L59.6311 14.2454V21.5386C59.6311 21.7064 59.6406 21.8653 59.6596 22.0155C59.6787 22.1618 59.7225 22.2734 59.7911 22.3503C59.8597 22.4271 59.9701 22.4408 60.1226 22.3912C60.2788 22.3404 60.3912 22.2562 60.4598 22.1385C60.5283 22.0171 60.5702 21.8757 60.5855 21.7144C60.6045 21.5518 60.6141 21.3867 60.6141 21.2189V13.9257L62.5687 13.2901V20.6633C62.5687 21.5786 62.3705 22.337 61.9743 22.9388C61.578 23.5367 60.9608 23.9719 60.1226 24.2445ZM63.3402 23.1066V13.0392L65.4091 12.3664L66.335 16.8873V12.0653L68.2781 11.4333V21.5008L66.3121 22.1401L65.3062 17.4335V22.4672L63.3402 23.1066ZM69.1697 21.2108V11.1434L71.9359 10.2438C72.6598 10.0084 73.2046 10.0333 73.5704 10.3186C73.9362 10.6001 74.119 11.1279 74.119 11.902V16.6154C74.119 17.5687 73.9514 18.3592 73.6161 18.9869C73.2846 19.6133 72.7017 20.0622 71.8673 20.3336L69.1697 21.2108ZM71.1929 18.7739L71.5415 18.6606C71.9111 18.5404 72.0959 18.301 72.0959 17.9426V12.7487C72.0959 12.4131 72.0501 12.2125 71.9587 12.1469C71.8711 12.0763 71.6901 12.0856 71.4158 12.1748L71.1929 12.2473V18.7739Z" fill="white"/>
</g>
<path d="M136.855 8.52246C136.744 8.52246 136.642 8.51335 136.551 8.49512C136.46 8.47855 136.392 8.46032 136.347 8.44043L136.526 7.83141C136.662 7.86787 136.783 7.88361 136.889 7.87864C136.995 7.87367 137.089 7.8339 137.17 7.75932C137.253 7.68475 137.326 7.56294 137.389 7.39391L137.481 7.14036L136.084 3.27246H136.879L137.846 6.23553H137.886L138.853 3.27246H139.651L138.078 7.60023C138.005 7.79909 137.912 7.9673 137.799 8.10485C137.686 8.24405 137.552 8.34846 137.396 8.41806C137.241 8.48766 137.06 8.52246 136.855 8.52246Z" fill="#CECECE"/>
<path d="M132.192 7.09091V2H132.936V3.89169H132.98C133.023 3.81214 133.086 3.72017 133.167 3.61577C133.248 3.51136 133.361 3.42022 133.505 3.34233C133.649 3.26278 133.84 3.22301 134.077 3.22301C134.385 3.22301 134.66 3.3009 134.902 3.45668C135.144 3.61245 135.334 3.837 135.471 4.13033C135.61 4.42365 135.68 4.77663 135.68 5.18928C135.68 5.60192 135.611 5.95573 135.474 6.25071C135.336 6.54403 135.147 6.77024 134.907 6.92933C134.667 7.08677 134.392 7.16548 134.084 7.16548C133.852 7.16548 133.662 7.12654 133.515 7.04865C133.369 6.97076 133.255 6.87962 133.172 6.77521C133.089 6.67081 133.025 6.57801 132.98 6.4968H132.918V7.09091H132.192ZM132.921 5.18182C132.921 5.45028 132.96 5.68561 133.038 5.88778C133.115 6.08996 133.228 6.24822 133.376 6.36257C133.523 6.47526 133.704 6.53161 133.918 6.53161C134.14 6.53161 134.325 6.47277 134.474 6.35511C134.623 6.2358 134.736 6.07422 134.812 5.87038C134.89 5.66655 134.929 5.43703 134.929 5.18182C134.929 4.92992 134.891 4.70372 134.815 4.5032C134.74 4.30268 134.628 4.14441 134.477 4.02841C134.328 3.91241 134.141 3.8544 133.918 3.8544C133.702 3.8544 133.52 3.90992 133.371 4.02095C133.223 4.13198 133.111 4.28693 133.035 4.4858C132.959 4.68466 132.921 4.91667 132.921 5.18182Z" fill="#CECECE"/>
<path d="M127.327 7.16548C127.019 7.16548 126.744 7.08677 126.502 6.92933C126.262 6.77024 126.073 6.54403 125.935 6.25071C125.799 5.95573 125.731 5.60192 125.731 5.18928C125.731 4.77663 125.8 4.42365 125.938 4.13033C126.077 3.837 126.268 3.61245 126.509 3.45668C126.751 3.3009 127.026 3.22301 127.332 3.22301C127.569 3.22301 127.76 3.26278 127.904 3.34233C128.05 3.42022 128.163 3.51136 128.242 3.61577C128.323 3.72017 128.386 3.81214 128.431 3.89169H128.476V2H129.219V7.09091H128.493V6.4968H128.431C128.386 6.57801 128.322 6.67081 128.237 6.77521C128.154 6.87962 128.04 6.97076 127.894 7.04865C127.748 7.12654 127.559 7.16548 127.327 7.16548ZM127.491 6.53161C127.705 6.53161 127.886 6.47526 128.033 6.36257C128.182 6.24822 128.295 6.08996 128.371 5.88778C128.449 5.68561 128.488 5.45028 128.488 5.18182C128.488 4.91667 128.45 4.68466 128.374 4.4858C128.298 4.28693 128.186 4.13198 128.038 4.02095C127.891 3.90992 127.708 3.8544 127.491 3.8544C127.268 3.8544 127.081 3.91241 126.932 4.02841C126.783 4.14441 126.67 4.30268 126.594 4.5032C126.519 4.70372 126.482 4.92992 126.482 5.18182C126.482 5.43703 126.52 5.66655 126.597 5.87038C126.673 6.07422 126.785 6.2358 126.935 6.35511C127.085 6.47277 127.271 6.53161 127.491 6.53161Z" fill="#CECECE"/>
<path d="M123.435 7.16761C123.059 7.16761 122.735 7.08724 122.463 6.92649C122.193 6.76409 121.984 6.53622 121.837 6.2429C121.691 5.94792 121.618 5.60239 121.618 5.20632C121.618 4.81522 121.691 4.47053 121.837 4.17223C121.984 3.87393 122.19 3.6411 122.453 3.47372C122.719 3.30634 123.028 3.22266 123.383 3.22266C123.599 3.22266 123.807 3.25829 124.009 3.32955C124.212 3.4008 124.393 3.51267 124.554 3.66513C124.715 3.81759 124.841 4.01562 124.934 4.25923C125.027 4.50118 125.073 4.79534 125.073 5.14169V5.40518H122.038V4.84837H124.345C124.345 4.65282 124.305 4.47964 124.226 4.32884C124.146 4.17637 124.034 4.05623 123.89 3.96839C123.748 3.88056 123.58 3.83665 123.388 3.83665C123.179 3.83665 122.997 3.88802 122.841 3.99077C122.687 4.09186 122.568 4.22443 122.483 4.38849C122.4 4.5509 122.359 4.72739 122.359 4.91797V5.35298C122.359 5.60819 122.404 5.82528 122.493 6.00426C122.584 6.18324 122.711 6.31996 122.873 6.41442C123.036 6.50722 123.226 6.55362 123.443 6.55362C123.584 6.55362 123.712 6.53374 123.828 6.49396C123.944 6.45253 124.044 6.39122 124.129 6.31001C124.213 6.22881 124.278 6.12855 124.323 6.00923L125.026 6.13601C124.97 6.34316 124.869 6.52462 124.723 6.6804C124.579 6.83452 124.397 6.95466 124.179 7.04084C123.961 7.12536 123.714 7.16761 123.435 7.16761Z" fill="#CECECE"/>
<path d="M119.24 7.09118V3.27299H119.959V3.87953H119.998C120.068 3.67404 120.191 3.51246 120.366 3.3948C120.544 3.27548 120.744 3.21582 120.968 3.21582C121.014 3.21582 121.069 3.21748 121.132 3.22079C121.197 3.22411 121.247 3.22825 121.284 3.23322V3.94416C121.254 3.93587 121.201 3.92676 121.124 3.91681C121.048 3.90521 120.972 3.89941 120.896 3.89941C120.72 3.89941 120.564 3.9367 120.426 4.01127C120.29 4.08419 120.182 4.18611 120.103 4.31703C120.023 4.44629 119.983 4.59378 119.983 4.7595V7.09118H119.24Z" fill="#CECECE"/>
<path d="M116.777 7.16761C116.401 7.16761 116.077 7.08724 115.805 6.92649C115.535 6.76409 115.326 6.53622 115.179 6.2429C115.033 5.94792 114.96 5.60239 114.96 5.20632C114.96 4.81522 115.033 4.47053 115.179 4.17223C115.326 3.87393 115.532 3.6411 115.795 3.47372C116.06 3.30634 116.37 3.22266 116.725 3.22266C116.94 3.22266 117.149 3.25829 117.351 3.32955C117.553 3.4008 117.735 3.51267 117.896 3.66513C118.056 3.81759 118.183 4.01562 118.276 4.25923C118.369 4.50118 118.415 4.79534 118.415 5.14169V5.40518H115.38V4.84837H117.687C117.687 4.65282 117.647 4.47964 117.568 4.32884C117.488 4.17637 117.376 4.05623 117.232 3.96839C117.089 3.88056 116.922 3.83665 116.73 3.83665C116.521 3.83665 116.339 3.88802 116.183 3.99077C116.029 4.09186 115.91 4.22443 115.825 4.38849C115.742 4.5509 115.701 4.72739 115.701 4.91797V5.35298C115.701 5.60819 115.745 5.82528 115.835 6.00426C115.926 6.18324 116.053 6.31996 116.215 6.41442C116.378 6.50722 116.567 6.55362 116.785 6.55362C116.925 6.55362 117.054 6.53374 117.17 6.49396C117.286 6.45253 117.386 6.39122 117.471 6.31001C117.555 6.22881 117.62 6.12855 117.665 6.00923L118.368 6.13601C118.312 6.34316 118.211 6.52462 118.065 6.6804C117.921 6.83452 117.739 6.95466 117.52 7.04084C117.303 7.12536 117.055 7.16761 116.777 7.16761Z" fill="#CECECE"/>
<path d="M110.299 7.09064L109.176 3.27246H109.944L110.692 6.07644H110.729L111.48 3.27246H112.248L112.994 6.06401H113.031L113.775 3.27246H114.543L113.422 7.09064H112.663L111.888 4.3339H111.831L111.055 7.09064H110.299Z" fill="#CECECE"/>
<path d="M106.978 7.16761C106.62 7.16761 106.308 7.08558 106.041 6.92152C105.774 6.75746 105.567 6.52794 105.419 6.23295C105.272 5.93797 105.198 5.59328 105.198 5.19886C105.198 4.80279 105.272 4.45644 105.419 4.1598C105.567 3.86316 105.774 3.63281 106.041 3.46875C106.308 3.30469 106.62 3.22266 106.978 3.22266C107.336 3.22266 107.648 3.30469 107.915 3.46875C108.182 3.63281 108.389 3.86316 108.537 4.1598C108.684 4.45644 108.758 4.80279 108.758 5.19886C108.758 5.59328 108.684 5.93797 108.537 6.23295C108.389 6.52794 108.182 6.75746 107.915 6.92152C107.648 7.08558 107.336 7.16761 106.978 7.16761ZM106.981 6.54368C107.213 6.54368 107.405 6.48236 107.557 6.35973C107.71 6.2371 107.822 6.07386 107.895 5.87003C107.97 5.66619 108.007 5.44164 108.007 5.19638C108.007 4.95277 107.97 4.72905 107.895 4.52521C107.822 4.31972 107.71 4.15483 107.557 4.03054C107.405 3.90625 107.213 3.84411 106.981 3.84411C106.747 3.84411 106.553 3.90625 106.399 4.03054C106.246 4.15483 106.133 4.31972 106.058 4.52521C105.985 4.72905 105.949 4.95277 105.949 5.19638C105.949 5.44164 105.985 5.66619 106.058 5.87003C106.133 6.07386 106.246 6.2371 106.399 6.35973C106.553 6.48236 106.747 6.54368 106.981 6.54368Z" fill="#CECECE"/>
<path d="M101 7.09091V2H102.815C103.211 2 103.539 2.07209 103.799 2.21626C104.059 2.36044 104.254 2.55765 104.383 2.80788C104.512 3.05646 104.577 3.33653 104.577 3.64808C104.577 3.96129 104.512 4.24302 104.381 4.49325C104.251 4.74183 104.056 4.93904 103.794 5.08487C103.534 5.22905 103.207 5.30114 102.812 5.30114H101.564V4.64986H102.743C102.993 4.64986 103.196 4.60677 103.352 4.5206C103.507 4.43277 103.622 4.31345 103.695 4.16264C103.768 4.01184 103.804 3.84032 103.804 3.64808C103.804 3.45585 103.768 3.28516 103.695 3.13601C103.622 2.98686 103.507 2.87003 103.349 2.78551C103.193 2.70099 102.988 2.65874 102.733 2.65874H101.768V7.09091H101Z" fill="#CECECE"/>
<g clip-path="url(#clip1_81_634)">
<path opacity="0.96" fill-rule="evenodd" clip-rule="evenodd" d="M147.234 16H149.006V18.3021H147.234V16ZM101 20.1615L102.816 20.1579L103.082 20.6688C103.229 20.9495 103.976 22.4246 104.743 23.9466C105.51 25.4686 106.167 26.7135 106.204 26.7135C106.24 26.7135 107.015 25.2491 109.583 20.2057L111.451 20.1615V28.8385H109.68V26.4922C109.68 25.2013 109.65 24.1627 109.614 24.1839C109.577 24.2043 109.029 25.2606 107.244 28.8421L105.207 28.7943L102.775 24.1016L102.771 28.8385H101V20.1615ZM184.39 20.157L186.781 20.1668L189.217 23.0833L190.391 21.6693C191.036 20.8919 191.644 20.2323 191.741 20.2048C191.839 20.1774 192.385 20.1659 193.995 20.2057L190.103 24.8542V28.8385H188.331L188.324 24.8099L186.542 22.6849C185.562 21.5161 184.677 20.4696 184.575 20.358L184.39 20.157ZM147.234 30.6988H149.006V33.0009H147.234V30.6988ZM116.188 20.1623L118.139 20.1553L118.373 20.6679C118.502 20.9495 119.349 22.8832 120.255 24.9657C121.162 27.0473 121.903 28.7704 121.903 28.7952C121.903 28.8191 121.474 28.8403 119.999 28.8456L119.113 26.8844L115.233 26.9358L114.419 28.835L112.426 28.8394L112.592 28.4631C112.684 28.2559 113.185 27.1102 113.704 25.9176C114.223 24.724 114.994 22.9408 115.418 21.9553L116.188 20.1623ZM116.078 25.0977C116.091 25.1092 116.605 25.1092 117.219 25.0977L118.338 25.0764C117.497 23.1356 117.232 22.5512 117.206 22.5273C117.179 22.5025 116.91 23.0656 116.606 23.7793C116.302 24.492 116.064 25.0861 116.078 25.0977ZM131.646 20.1623V21.9332H128.701C127.032 21.9332 125.611 21.9721 125.424 22.0217C125.241 22.0704 125.031 22.1696 124.959 22.2431C124.885 22.3157 124.8 22.4848 124.768 22.6194C124.734 22.7672 124.761 22.9488 124.838 23.0842C124.908 23.2055 125.083 23.3649 125.228 23.4375C125.43 23.5393 125.995 23.5809 127.704 23.6199C129.633 23.6633 129.969 23.6916 130.311 23.8413C130.526 23.936 130.865 24.1945 131.064 24.4159C131.262 24.6372 131.478 24.9958 131.544 25.2128C131.621 25.4686 131.65 25.8874 131.626 26.4045C131.6 26.9739 131.538 27.3015 131.408 27.5556C131.309 27.7504 131.052 28.0585 130.839 28.24C130.602 28.4419 130.26 28.6225 129.963 28.704C129.57 28.812 128.843 28.8377 122.966 28.8394V27.0686L126.088 27.0465C128.583 27.0288 129.254 26.9986 129.431 26.8986C129.553 26.8304 129.702 26.7109 129.761 26.633C129.82 26.5559 129.869 26.3735 129.869 26.2274C129.869 26.0814 129.82 25.8981 129.761 25.821C129.702 25.744 129.553 25.6245 129.431 25.5563C129.265 25.4624 128.663 25.4199 126.996 25.3845C124.936 25.3403 124.75 25.3234 124.339 25.1357C124.095 25.0242 123.782 24.8267 123.644 24.6948C123.506 24.5638 123.307 24.2972 123.201 24.1024C123.038 23.8005 123.01 23.6031 123.01 22.7743C123.01 21.9438 123.038 21.7472 123.201 21.4462C123.307 21.2514 123.526 20.9654 123.688 20.8105C123.851 20.6555 124.156 20.4767 124.366 20.4111C124.577 20.3465 124.816 20.2686 124.897 20.2376C124.98 20.2075 126.532 20.1783 131.646 20.1623ZM132.886 20.1623H141.566V21.9332H138.111V28.8394H136.34V21.9332H132.886V20.1623ZM143.691 20.1623H152.46V21.9332H143.691V20.1623ZM154.682 20.1544L158.154 20.1801C161.565 20.2057 161.635 20.2102 162.07 20.4103C162.314 20.5227 162.623 20.7219 162.757 20.853C162.892 20.984 163.09 21.2913 163.197 21.5347C163.349 21.8801 163.392 22.1528 163.395 22.7743C163.398 23.4588 163.366 23.6394 163.164 24.0582C163.013 24.3707 162.792 24.6488 162.544 24.8356C162.332 24.9949 161.999 25.1703 161.804 25.2234C161.609 25.2765 161.144 25.3456 160.094 25.4306L161.864 26.9358C162.837 27.7636 163.74 28.5286 164.107 28.8323L161.361 28.8456L159.324 27.1173C157.377 25.466 157.27 25.389 156.534 25.3863V28.928H154.674L154.682 20.1544ZM156.534 23.6146C160.618 23.5739 160.958 23.5491 161.206 23.4154C161.365 23.3304 161.517 23.171 161.545 23.0612C161.572 22.9523 161.583 22.7469 161.567 22.6052C161.55 22.4485 161.442 22.2758 161.289 22.1625C161.053 21.9872 160.912 21.9757 158.792 21.9491L156.546 21.9217L156.534 23.6146ZM165.214 20.1615H166.987L167.03 23.611L170.883 20.1615L173.512 20.2057L171.139 22.3307C169.833 23.4995 168.767 24.4752 168.769 24.5C168.77 24.5239 169.663 25.3411 170.754 26.3151C171.846 27.2891 172.929 28.2542 173.584 28.835L170.883 28.8385L167.03 25.3704L166.986 28.8385H165.214V20.1615ZM174.603 20.1615H183.371V21.9323H174.603V20.1615ZM143.691 23.6146H152.46V25.3854H143.691V23.6146ZM174.603 23.6146H183.371V25.3854H174.603V23.6146ZM143.691 27.0677H152.46V28.8385H143.691V27.0677ZM174.603 27.0677H183.371V28.8385H174.603V27.0677Z" fill="#D6D6D6"/>
</g>
<defs>
<clipPath id="clip0_81_634">
<rect width="77" height="42" fill="white"/>
</clipPath>
<clipPath id="clip1_81_634">
<rect width="93" height="17" fill="white" transform="translate(101 16)"/>
</clipPath>
</defs>
</svg>
