<?xml version="1.0" encoding="UTF-8"?>
<svg xmlns="http://www.w3.org/2000/svg" version="1.1" viewBox="29.0014 18.7779 235.975 50.0743">
  <!-- Generator: Adobe Illustrator 29.8.2, SVG Export Plug-In . SVG Version: 2.1.1 Build 3)  -->
  <defs>
    <style>
      .st0 {
        fill: #fff;
      }

      .st1 {
        fill: #ee0c5d;
      }

      .st2 {
        display: none;
      }
    </style>
  </defs>
  <g id="FPO-black-background" class="st2">
    <rect x="-.71" y="-.04" width="293.93" height="94.27"/>
  </g>
  <g id="Logo-Reversed">
    <g>
      <path class="st0" d="M82.72,52.68v-.05c0-4.82,3.63-8.76,8.83-8.76,3.19,0,5.11,1.06,6.68,2.61l-2.37,2.73c-1.31-1.19-2.64-1.91-4.33-1.91-2.86,0-4.91,2.37-4.91,5.28v.05c0,2.9,2.01,5.32,4.91,5.32,1.94,0,3.12-.77,4.45-1.98l2.37,2.4c-1.74,1.86-3.68,3.02-6.95,3.02-4.99,0-8.69-3.85-8.69-8.71Z"/>
      <path class="st0" d="M101.4,44.16h3.73v6.7h6.87v-6.7h3.73v16.94h-3.73v-6.8h-6.87v6.8h-3.73v-16.94Z"/>
      <path class="st0" d="M120.18,44.16h12.78v3.32h-9.08v3.44h7.99v3.32h-7.99v3.56h9.2v3.32h-12.9v-16.94Z"/>
      <path class="st0" d="M135.72,52.68v-.05c0-4.82,3.63-8.76,8.83-8.76,3.19,0,5.11,1.06,6.68,2.61l-2.37,2.73c-1.31-1.19-2.64-1.91-4.33-1.91-2.86,0-4.91,2.37-4.91,5.28v.05c0,2.9,2.01,5.32,4.91,5.32,1.94,0,3.12-.77,4.45-1.98l2.37,2.4c-1.74,1.86-3.68,3.02-6.95,3.02-4.99,0-8.69-3.85-8.69-8.71Z"/>
      <path class="st0" d="M154.18,44.16h3.73v7.41l6.87-7.41h4.5l-6.9,7.19,7.21,9.75h-4.48l-5.25-7.21-1.96,2.03v5.18h-3.73v-16.94Z"/>
      <path class="st0" d="M179.52,44.16h6.92c4.04,0,6.49,2.4,6.49,5.86v.05c0,3.92-3.05,5.95-6.85,5.95h-2.83v5.08h-3.73v-16.94ZM186.2,52.7c1.86,0,2.95-1.11,2.95-2.57v-.05c0-1.67-1.16-2.57-3.03-2.57h-2.88v5.18h2.95Z"/>
      <path class="st0" d="M195.32,52.68v-.05c0-4.82,3.8-8.76,9.03-8.76s8.98,3.9,8.98,8.71v.05c0,4.82-3.8,8.76-9.03,8.76s-8.98-3.9-8.98-8.71ZM209.43,52.68v-.05c0-2.9-2.13-5.32-5.13-5.32s-5.08,2.37-5.08,5.28v.05c0,2.9,2.13,5.32,5.13,5.32s5.08-2.37,5.08-5.28Z"/>
      <path class="st0" d="M216.93,44.16h3.73v16.94h-3.73v-16.94Z"/>
      <path class="st0" d="M225.33,44.16h3.44l7.94,10.43v-10.43h3.68v16.94h-3.17l-8.2-10.77v10.77h-3.68v-16.94Z"/>
      <path class="st0" d="M248.85,47.6h-5.15v-3.44h14.04v3.44h-5.16v13.5h-3.73v-13.5Z"/>
    </g>
    <g>
      <path class="st0" d="M261.24,46.5h-.41s0-1.96,0-1.96h-.74s0-.38,0-.38h1.9s0,.39,0,.39h-.74s0,1.96,0,1.96Z"/>
      <path class="st0" d="M263.77,45.94h-.01s-.73-1.1-.73-1.1v1.67s-.41,0-.41,0v-2.34s.44,0,.44,0l.71,1.11.71-1.1h.44s0,2.34,0,2.34h-.41s0-1.68,0-1.68l-.74,1.1Z"/>
    </g>
    <g>
      <polygon points="61.04 31.25 61.04 31.25 61.04 31.26 61.04 31.25"/>
      <polygon points="69.44 43.45 69.44 43.45 69.44 43.45 69.44 43.45"/>
      <path class="st0" d="M79.81,31.45c-2.66,3.31-7.5,3.83-10.8,1.17-3.31-2.66-3.83-7.49-1.17-10.8,2.66-3.3,7.49-3.83,10.8-1.17,3.31,2.65,3.83,7.49,1.17,10.8Z"/>
      <path class="st1" d="M69.44,43.45c-2.13.98-4.68.96-6.86-.28l-6.04,8.02c.75.88,1.17,1.98,1.22,3.11.04,1-.22,2.03-.8,2.94-1.51,2.34-4.65,3.02-6.99,1.5-.25-.16-.47-.34-.68-.54-.07-.06-.13-.12-.19-.19-.14-.15-.27-.3-.39-.46-.05-.07-.11-.14-.16-.21-.15-.22-.28-.44-.39-.68-.03-.06-.05-.12-.08-.19-.08-.19-.15-.39-.21-.59-.02-.07-.04-.15-.06-.22-.06-.25-.1-.5-.12-.75,0-.07,0-.14,0-.21-.01-.23,0-.46.01-.69,0-.05,0-.1.01-.14.03-.27.09-.53.16-.79.02-.06.04-.12.06-.19.09-.27.19-.53.33-.79l-4.87-3.66-1.51,2.01-5.57-4.19,4.19-5.57,5.57,4.19-1.51,2.01,4.92,3.7c1.53-1.28,3.73-1.56,5.56-.62l6.02-7.99c-2.4-2.35-3.01-6.11-1.24-9.15.35-.6.77-1.12,1.24-1.59-3.27-2.23-7.23-3.55-11.49-3.56-11.33-.03-20.53,9.13-20.56,20.46-.03,11.33,9.13,20.53,20.46,20.56,11.33.03,20.53-9.13,20.56-20.46,0-1.66-.19-3.27-.56-4.81Z"/>
    </g>
  </g>
</svg>