<?xml version="1.0" encoding="utf-8"?>
<!-- Generator: Adobe Illustrator 28.0.0, SVG Export Plug-In . SVG Version: 6.00 Build 0)  -->
<svg version="1.1" id="Layer_1" xmlns="http://www.w3.org/2000/svg" xmlns:xlink="http://www.w3.org/1999/xlink" x="0px" y="0px"
	 viewBox="0 0 203 34.945" style="enable-background:new 0 0 203 35;" xml:space="preserve">
<style type="text/css">
	.st0{fill:#FFFFFF;}
</style>
<g>
	<g>
		<g>
			<path class="st0" d="M0,6.7h5.8v8.2h7.8V6.7h5.8v22.5h-5.8V20H5.8v9.2H0V6.7z"/>
			<path class="st0" d="M37.7,29.2h-5.2V27h-0.1c-1,1.7-3.1,2.7-5,2.7c-4.8,0-6-2.7-6-7v-9.8h5.3v9.5c0,2.2,1,2.9,2.6,2.9
				c1.2,0,2.9-0.8,2.9-3.7v-8.8h5.3L37.7,29.2L37.7,29.2z"/>
			<path class="st0" d="M56,27.2c0,2.7-0.5,7.8-8.2,7.8c-3.8,0-7.4-0.9-8.1-5.2H45c0.1,0.8,0.5,1.2,1,1.5s1.2,0.4,1.9,0.4
				c2.6,0,2.8-1.8,2.8-3.8v-1.6h-0.1c-1,1.6-2.6,2.4-4.4,2.4c-5,0-7.2-3.5-7.2-8.2c0-4.4,2.6-8,7.2-8c1.9,0,3.5,0.9,4.4,2.5h0.1v-2
				H56V27.2L56,27.2z M47.7,16.5c-2.4,0-3.1,2-3.1,4.1c0,1.9,0.9,3.8,3.1,3.8s3.3-1.8,3.3-3.8S50.1,16.5,47.7,16.5z"/>
			<path class="st0" d="M62.5,22.4c0.1,2.2,1.4,3.7,3.7,3.7c1.4,0,2.6-0.6,3.1-1.8h5.1c-1,3.8-4.5,5.4-8.2,5.4
				c-5.3,0-8.9-3.2-8.9-8.7c0-5.1,4-8.7,8.8-8.7c5.8,0,8.8,4.4,8.6,9.9L62.5,22.4L62.5,22.4z M69.2,19.3C69.1,17.5,67.9,16,66,16
				c-1.8,0-3.1,1.4-3.5,3.3H69.2z"/>
		</g>
		<g>
			<g>
				<path class="st0" d="M76,6.2h9.7c6.9,0,11.1,4.2,11.1,11.2c0,7.4-4.2,11.4-11.1,11.4H76C76,28.9,76,6.2,76,6.2z M81.9,23.7h2.7
					c4.5-0.1,6.2-1.8,6.2-6.3c0-4.1-2.2-6.1-6.2-6.1h-2.7V23.7z"/>
				<path class="st0" d="M106.4,11.9c5.1,0,8.7,3.8,8.7,8.7s-3.6,8.7-8.7,8.7s-8.7-3.7-8.7-8.7S101.2,11.9,106.4,11.9z M106.4,25.2
					c2.5,0,3.3-2.4,3.3-4.6s-0.8-4.6-3.3-4.6s-3.3,2.5-3.3,4.6S103.8,25.2,106.4,25.2z"/>
				<path class="st0" d="M116.2,12.4h5.2v2.2h0.1c1-1.7,2.7-2.7,4.8-2.7c2.1,0,3.9,0.6,4.8,2.6c1.4-1.8,2.9-2.6,5.1-2.6
					c5.2,0,5.8,4,5.8,7.1v9.7h-5.3v-9.6c0-1.8-0.9-2.8-2.2-2.8c-2.3,0-2.5,1.8-2.5,4.4v8h-5.3v-9.2c0-1.9-0.6-3.1-2-3.1
					c-1.9,0-2.7,1.2-2.7,4.5v8h-5.3L116.2,12.4L116.2,12.4z"/>
				<path class="st0" d="M144,17.4c0.1-2.1,1.2-3.5,2.6-4.4c1.5-0.8,3.3-1.2,5.2-1.2c3.9,0,7.6,0.9,7.6,5.4v7.2c0,1.4,0,2.9,0.6,4.2
					h-5.4c-0.2-0.5-0.3-1-0.3-1.6c-1.4,1.5-3.5,2-5.4,2c-3.1,0-5.6-1.6-5.6-5c0-5.3,5.8-5,9.5-5.6c1-0.2,1.5-0.5,1.5-1.6
					c0-1.3-1.6-1.7-2.6-1.7c-1.6,0-2.4,0.6-2.7,2L144,17.4L144,17.4z M151,26c2.6,0,3.4-1.5,3.3-4.9c-0.8,0.5-2.1,0.6-3.3,0.9
					s-2.2,0.8-2.2,2C148.7,25.5,149.7,26,151,26z"/>
				<path class="st0" d="M161.8,12.4h5.3v16.3h-5.3V12.4z"/>
				<path class="st0" d="M169.6,12.4h5.2v2.2h0.1c1-1.7,3.2-2.7,5.2-2.7c5.4,0,5.9,4,5.9,6.3v10.5h-5.3v-8c0-2.2,0.3-4.6-2.7-4.6
					c-2,0-2.9,1.7-2.9,3.5v8.9h-5.4V12.4H169.6z"/>
				<path class="st0" d="M192.3,23.4c0,0.8,0.4,1.5,0.9,1.8c0.5,0.4,1.3,0.6,2,0.6c1.1,0,2.5-0.5,2.5-1.7c0-1.3-1.7-1.6-2.6-1.8
					c-3.4-0.9-7.6-1-7.6-5.3c0-4,4.3-5.1,7.5-5.1c3.6,0,7.4,1.1,7.6,5.3h-5.1c0-0.7-0.3-1.2-0.7-1.5c-0.5-0.3-1.1-0.5-1.7-0.5
					c-0.9,0-2.3,0.1-2.3,1.3c0,1.6,3.6,1.8,6,2.4c3.3,0.6,4.2,3.1,4.2,4.4c0,4.4-4.2,5.8-7.9,5.8c-3.9,0-7.9-1.4-8-5.8L192.3,23.4
					L192.3,23.4z"/>
			</g>
		</g>
		<polygon class="st0" points="159.3,5.2 164.4,10.9 173.6,0 164.4,7.1 		"/>
	</g>
</g>
</svg>
