<svg viewBox="0 5.76 448 94.08" fill="none" xmlns="http://www.w3.org/2000/svg">
<g clip-path="url(#clip0_18098_6796)">
<mask id="mask0_18098_6796" style="mask-type:luminance" maskUnits="userSpaceOnUse" x="0" y="0" width="448" height="100">
<path d="M448 0H0V100H448V0Z" fill="white"/>
</mask>
<g mask="url(#mask0_18098_6796)">
<mask id="mask1_18098_6796" style="mask-type:luminance" maskUnits="userSpaceOnUse" x="0" y="0" width="92" height="89">
<path d="M91.2764 0H0V88.8831H91.2764V0Z" fill="white"/>
</mask>
<g mask="url(#mask1_18098_6796)">
<path d="M39.3688 12.6762C37.6818 14.1962 36.0338 15.7033 34.3858 17.1847C26.7167 24.115 19.0346 31.0582 11.3655 37.9885C9.60072 39.573 7.78401 41.1059 5.56503 42.0333C2.9308 43.1412 1.42553 42.4455 0.582063 39.6889C-0.598797 35.8244 0.0370506 32.2305 2.30794 28.907C4.25441 26.0859 6.69398 23.7286 9.21141 21.4485C13.2212 17.803 17.2569 14.1962 21.3444 10.6538C23.1352 9.09501 25.0946 7.67807 27.4823 7.20145C34.6454 5.79736 39.2001 12.483 39.3817 12.6762H39.3688Z" fill="white"/>
<path d="M4.92829 47.9585C9.28839 46.7348 12.5455 44.0425 15.7247 41.2086C25.8724 32.1915 35.994 23.1743 46.1806 14.2217C48.4255 12.2508 50.7872 10.3571 53.2917 8.6954C56.4709 6.59569 59.9226 6.28653 63.3355 8.29607C64.5682 9.01745 65.775 9.85478 66.7742 10.8595C70.2389 14.3504 73.6777 17.9058 77.0126 21.5255C80.5682 25.3642 84.0589 29.2674 87.4587 33.2349C88.6266 34.6003 89.5868 36.1848 90.3651 37.795C91.8319 40.7835 91.4555 43.7463 89.6644 46.5416C88.0686 49.0407 85.9145 51.0888 83.7085 53.0339C75.0532 60.647 66.4109 68.26 57.6517 75.77C55.303 77.7924 52.7206 79.5958 50.0475 81.1932C45.0256 84.2075 39.9907 83.8339 35.41 80.2657C32.7499 78.1917 30.2324 75.8601 27.9486 73.3998C20.5779 65.439 13.3371 57.375 6.04427 49.3369C5.68093 48.9375 5.34354 48.4996 4.90234 47.9715L4.92829 47.9585Z" fill="white"/>
</g>
<path d="M155.758 7.60077H166.84V66.122H155.758V61.1883C152.488 65.2589 147.856 67.2942 141.847 67.2942C135.839 67.2942 131.116 65.1559 127.028 60.8921C122.927 56.6282 120.891 51.3983 120.891 45.2151C120.891 39.032 122.941 33.802 127.028 29.5382C131.128 25.2744 136.06 23.136 141.847 23.136C147.634 23.136 152.501 25.1713 155.758 29.2419V7.58789V7.60077ZM135.359 53.7041C137.63 55.9069 140.472 57.0018 143.911 57.0018C147.35 57.0018 150.178 55.8939 152.424 53.7041C154.655 51.5013 155.771 48.6674 155.771 45.2151C155.771 41.7629 154.655 38.9288 152.424 36.7261C150.192 34.5234 147.362 33.4284 143.911 33.4284C140.459 33.4284 137.63 34.5362 135.359 36.7261C133.101 38.9288 131.959 41.7629 131.959 45.2151C131.959 48.6674 133.088 51.5013 135.359 53.7041Z" fill="white"/>
<path d="M203.888 24.3203H215.748L200.085 66.1855C197.854 72.1626 194.895 76.4908 191.197 79.1959C187.512 81.9011 182.918 83.112 177.429 82.8286V72.8067C180.4 72.8582 182.762 72.2528 184.514 70.9646C186.266 69.6893 187.654 67.6154 188.679 64.7815L171.07 24.3203H183.19L194.39 52.415L203.901 24.3203H203.888Z" fill="white"/>
<path d="M243.917 23.1484C248.615 23.1484 252.495 24.6813 255.557 27.7471C258.62 30.813 260.151 35.051 260.151 40.4484V66.1086H249.069V41.7881C249.069 39.0057 248.291 36.8674 246.746 35.3859C245.202 33.9175 243.139 33.1703 240.557 33.1703C237.688 33.1703 235.405 34.0333 233.692 35.7595C231.979 37.4857 231.11 40.0749 231.11 43.5271V66.0958H220.027V24.3077H231.11V28.9967C233.809 25.0935 238.065 23.1484 243.904 23.1484H243.917Z" fill="white"/>
<path d="M300.497 24.3199H311.579V66.1208H300.497V61.1871C297.175 65.2577 292.504 67.293 286.496 67.293C280.487 67.293 275.855 65.1547 271.767 60.8908C267.68 56.627 265.629 51.3971 265.629 45.2139C265.629 39.0308 267.68 33.8007 271.767 29.537C275.868 25.2732 280.773 23.1348 286.496 23.1348C292.517 23.1348 297.175 25.1701 300.497 29.2407V24.307V24.3199ZM280.046 53.7029C282.278 55.9057 285.12 57.0006 288.558 57.0006C291.997 57.0006 294.852 55.8927 297.11 53.7029C299.368 51.5001 300.51 48.6662 300.51 45.2139C300.51 41.7616 299.381 38.9276 297.11 36.7249C294.852 34.5222 291.997 33.4272 288.558 33.4272C285.12 33.4272 282.291 34.535 280.046 36.7249C277.815 38.9276 276.698 41.7616 276.698 45.2139C276.698 48.6662 277.815 51.5001 280.046 53.7029Z" fill="white"/>
<path d="M366.107 23.1477C371.038 23.1477 374.969 24.7064 377.929 27.8366C380.874 30.9668 382.353 35.1405 382.353 40.3832V66.1336H371.272V41.1433C371.272 38.6442 370.649 36.6863 369.377 35.295C368.119 33.9039 366.341 33.2082 364.044 33.2082C361.526 33.2082 359.554 34.0198 358.152 35.6299C356.751 37.2402 356.05 39.5846 356.05 42.6505V66.1466H344.969V41.1562C344.969 38.6572 344.345 36.6991 343.074 35.3079C341.815 33.9167 340.037 33.2211 337.741 33.2211C335.275 33.2211 333.315 34.0326 331.849 35.6429C330.395 37.2531 329.656 39.5975 329.656 42.6633V66.1594H318.574V24.3328H329.656V28.7641C332.238 25.0284 336.209 23.1606 341.608 23.1606C347.005 23.1606 350.768 25.1701 353.286 29.1763C356.141 25.1572 360.423 23.1606 366.081 23.1606V23.1348L366.107 23.1477Z" fill="white"/>
<path d="M394.873 19.2958C393.044 19.2958 391.447 18.6388 390.111 17.3378C388.762 16.0238 388.086 14.478 388.086 12.7004C388.086 10.9227 388.762 9.35117 390.111 8.01148C391.46 6.67179 393.044 6.00195 394.873 6.00195C396.703 6.00195 398.376 6.67179 399.726 8.01148C401.076 9.35117 401.737 10.9098 401.737 12.7004C401.737 14.4909 401.063 16.0367 399.726 17.3378C398.376 18.6517 396.767 19.2958 394.873 19.2958ZM389.371 66.1205V24.3197H400.453V66.1205H389.371Z" fill="white"/>
<path d="M428.573 67.2808C422.098 67.2808 416.7 65.1683 412.379 60.9302C408.057 56.6921 405.891 51.4622 405.891 45.2146C405.891 38.967 408.057 33.7371 412.379 29.4991C416.7 25.261 422.098 23.1484 428.573 23.1484C432.764 23.1484 436.567 24.1274 440.006 26.0725C443.445 28.0176 446.053 30.6455 447.831 33.9303L438.293 39.3664C437.436 37.6402 436.125 36.2748 434.387 35.27C432.635 34.2652 430.676 33.7628 428.496 33.7628C425.173 33.7628 422.423 34.832 420.243 36.9833C418.062 39.1345 416.985 41.8783 416.985 45.2146C416.985 48.5509 418.075 51.2175 420.243 53.3687C422.423 55.5199 425.173 56.5891 428.496 56.5891C430.728 56.5891 432.712 56.0996 434.465 55.1206C436.217 54.1416 437.514 52.789 438.371 51.0629L447.999 56.4087C446.105 59.6935 443.445 62.3342 440.006 64.3051C436.567 66.289 432.764 67.2679 428.573 67.2679V67.2808Z" fill="white"/>
<mask id="mask2_18098_6796" style="mask-type:luminance" maskUnits="userSpaceOnUse" x="239" y="80" width="106" height="17">
<path d="M344.389 80.5781H239.816V96.7058H344.389V80.5781Z" fill="white"/>
</mask>
<g mask="url(#mask2_18098_6796)">
<path d="M271.188 84.332C267.525 84.332 265.465 86.5584 265.465 90.5194C265.465 94.4802 267.525 96.6935 271.188 96.6935C273.914 96.6935 275.948 95.5418 276.587 93.0043C276.639 92.7971 276.482 92.6034 276.274 92.6034H274.644C274.488 92.6034 274.357 92.7069 274.331 92.8489C274.187 93.4319 273.614 94.8685 271.188 94.8685C269.415 94.8685 268.164 93.7168 267.811 91.6837C267.772 91.49 267.929 91.3087 268.138 91.3087H276.587C276.77 91.3087 276.913 91.1668 276.913 90.9855V90.6355C276.913 86.5972 274.852 84.345 271.188 84.345V84.332ZM274.266 89.6257H268.124C267.929 89.6257 267.772 89.4444 267.798 89.2507C268.124 87.2833 269.324 86.1701 271.202 86.1701C273.079 86.1701 274.253 87.2833 274.579 89.2507C274.617 89.4444 274.462 89.6257 274.253 89.6257H274.266Z" fill="white"/>
<path d="M264.747 84.6294H263.508C262.387 84.6294 261.356 85.2248 260.783 86.1826C260.627 86.4545 260.209 86.338 260.209 86.0274V84.9271C260.209 84.7458 260.066 84.6035 259.883 84.6035H258.084C257.901 84.6035 257.758 84.7458 257.758 84.9271V96.0842C257.758 96.2655 257.901 96.4083 258.084 96.4083H259.883C260.066 96.4083 260.209 96.2655 260.209 96.0842V89.1338C260.209 87.7877 261.304 86.7133 262.647 86.7133H263.86C263.964 86.7133 264.068 86.6486 264.121 86.558L264.995 85.0695C265.112 84.8624 264.969 84.6165 264.734 84.6165L264.747 84.6294Z" fill="white"/>
<path d="M254.81 84.6035H253.076C252.893 84.6035 252.75 84.7458 252.75 84.9271V96.0976C252.75 96.2789 252.893 96.4208 253.076 96.4208H254.81C254.993 96.4208 255.136 96.2789 255.136 96.0976V84.9271C255.136 84.7458 254.993 84.6035 254.81 84.6035Z" fill="white"/>
<path d="M254.889 80.5781H252.999C252.804 80.5781 252.66 80.7334 252.66 80.9146V82.908C252.66 83.1021 252.817 83.2446 252.999 83.2446H254.889C255.086 83.2446 255.229 83.0892 255.229 82.908V80.9146C255.229 80.7205 255.072 80.5781 254.889 80.5781Z" fill="white"/>
<path d="M250.482 80.5781H240.142C239.96 80.5781 239.816 80.7205 239.816 80.9017V96.0978C239.816 96.279 239.96 96.421 240.142 96.421H241.954C242.137 96.421 242.28 96.279 242.28 96.0978V89.1339C242.28 88.9657 242.424 88.8362 242.581 88.8362H248.357C248.461 88.8362 248.552 88.7845 248.604 88.7068L249.439 87.2701C249.621 86.9723 249.465 86.7394 249.191 86.7394H244.184C243.936 86.7394 243.689 86.83 243.506 86.9982C243.285 87.1924 242.985 87.4642 242.841 87.5807C242.619 87.7748 242.28 87.6196 242.28 87.3219V83.1021C242.28 82.921 242.424 82.7786 242.607 82.7786H249.595C249.699 82.7786 249.804 82.7138 249.856 82.6232L250.743 81.0959C250.899 80.824 250.743 80.5781 250.482 80.5781Z" fill="white"/>
<path d="M320.839 92.2157H319.131C318.974 92.2157 318.857 92.3193 318.818 92.4612C318.453 93.872 317.397 94.6746 315.871 94.6746C313.72 94.6746 312.442 93.1996 312.442 90.5202C312.442 87.8405 313.707 86.365 315.871 86.365C318.036 86.365 318.636 87.8923 318.792 88.4878C318.831 88.6302 318.962 88.7337 319.105 88.7337H320.826C321.035 88.7337 321.191 88.5395 321.152 88.3453C320.644 85.7695 318.74 84.3457 315.767 84.3457C312.077 84.3457 310.043 86.572 310.043 90.5202C310.043 94.4675 312.077 96.6943 315.767 96.6943C318.74 96.6943 320.67 95.2318 321.152 92.6041C321.191 92.4095 321.035 92.2157 320.826 92.2157H320.839Z" fill="white"/>
<path d="M328.05 90.092C327.933 89.9626 327.946 89.7554 328.076 89.6393L333.096 85.0831C333.292 84.9148 333.162 84.6042 332.901 84.6042H330.749C330.671 84.6042 330.593 84.6301 330.528 84.6818L325.99 88.7979C325.833 88.9403 325.586 88.8238 325.586 88.6168V80.8763C325.586 80.6951 325.442 80.5527 325.26 80.5527H323.525C323.343 80.5527 323.199 80.6951 323.199 80.8763V96.0849C323.199 96.2661 323.343 96.409 323.525 96.409H325.26C325.442 96.409 325.586 96.2661 325.586 96.0849V91.167C325.586 90.9465 325.859 90.8429 326.003 91.0117L330.723 96.292C330.788 96.3572 330.88 96.3956 330.971 96.3956H333.148C333.397 96.3956 333.514 96.1108 333.357 95.9304L328.037 90.0661L328.05 90.092Z" fill="white"/>
<path d="M339.812 89.4573C337.334 89.0043 336.774 88.6807 336.774 87.7099C336.774 86.7391 337.804 86.1178 339.081 86.1178C341.338 86.1178 341.742 87.4251 341.82 88.0205C341.833 88.1888 341.976 88.3053 342.146 88.3053H343.802C343.998 88.3053 344.141 88.1371 344.128 87.9558C343.946 85.6906 342.159 84.3574 339.081 84.3574C336.331 84.3574 334.44 85.6777 334.44 87.8134C334.44 89.6252 335.405 90.8163 339.108 91.4252C341.676 91.8386 342.016 92.2663 342.016 93.2627C342.016 94.3761 341.037 94.9457 339.434 94.9457C336.996 94.9457 336.604 93.5091 336.552 92.8618C336.552 92.693 336.396 92.5636 336.226 92.5636H334.557C334.361 92.5636 334.218 92.7189 334.231 92.9136C334.414 95.5672 336.513 96.7189 339.382 96.7189C342.251 96.7189 344.388 95.4502 344.388 93.1332C344.388 91.1404 343.385 90.1564 339.812 89.4698V89.4573Z" fill="white"/>
<path d="M294.491 80.5781H292.756C292.573 80.5781 292.43 80.7205 292.43 80.9017V96.0978C292.43 96.279 292.573 96.421 292.756 96.421H294.491C294.672 96.421 294.816 96.279 294.816 96.0978V80.9017C294.816 80.7205 294.672 80.5781 294.491 80.5781Z" fill="white"/>
<path d="M302.728 84.332C299.037 84.332 296.848 86.9855 296.848 90.506C296.848 94.0266 299.051 96.6802 302.728 96.6802C306.405 96.6802 308.609 94.0266 308.609 90.506C308.609 86.9855 306.405 84.332 302.728 84.332ZM302.728 94.765C300.368 94.765 299.272 92.9659 299.272 90.5194C299.272 88.0728 300.368 86.2736 302.728 86.2736C305.088 86.2736 306.183 88.0728 306.183 90.5194C306.183 92.9659 305.088 94.765 302.728 94.765Z" fill="white"/>
<path d="M285.531 84.3577C283.927 84.3577 282.636 84.9661 281.867 86.0145C281.737 86.1957 281.463 86.0921 281.463 85.8851V80.9017C281.463 80.7205 281.32 80.5781 281.137 80.5781H279.416C279.233 80.5781 279.09 80.7205 279.09 80.9017V96.0978C279.09 96.279 279.233 96.421 279.416 96.421H281.046C281.229 96.421 281.372 96.279 281.372 96.0978V94.829C281.372 94.6219 281.645 94.5442 281.763 94.7254C282.532 95.9299 283.849 96.6799 285.492 96.6799C288.739 96.6799 290.733 94.4022 290.733 90.5192C290.733 86.6358 288.725 84.3577 285.545 84.3577H285.531ZM284.866 94.7254C282.741 94.7254 281.476 93.1076 281.476 90.5192C281.476 87.9302 282.741 86.2993 284.866 86.2993C286.992 86.2993 288.295 87.9302 288.295 90.5192C288.295 93.1076 287.018 94.7254 284.866 94.7254Z" fill="white"/>
</g>
<path d="M220.414 93.1865C220.414 91.1159 221.966 90.0025 224.991 89.4454L228.746 88.6563V88.0867C228.746 86.8571 227.872 86.2487 226.191 86.2487C224.678 86.2487 223.335 86.8182 223.335 88.3585H220.936C220.936 85.5239 223.361 84.3848 226.243 84.3848C229.58 84.3848 231.093 85.7439 231.093 87.8407V96.4615H228.851V94.2865C228.121 95.6981 226.477 96.7329 224.599 96.7329C222.239 96.7329 220.44 95.465 220.44 93.1999L220.414 93.1865ZM228.733 91.5302V90.1704L225.369 91.0382C223.974 91.4007 222.878 91.9436 222.878 93.1481C222.878 94.1704 223.57 94.8954 225.121 94.8954C226.947 94.8954 228.733 93.6525 228.733 91.5427V91.5302Z" fill="white"/>
<path d="M352.777 90.5456C352.777 86.5974 354.811 84.3711 358.488 84.3711C361.591 84.3711 363.535 85.9373 363.925 88.7461H361.553C361.227 87.2706 360.105 86.3904 358.58 86.3904C356.402 86.3904 355.15 87.8918 355.15 90.5456C355.15 93.1991 356.428 94.7 358.58 94.7C360.184 94.7 361.279 93.8197 361.579 92.2536H363.939C363.573 95.1143 361.605 96.7197 358.501 96.7197C354.825 96.7197 352.79 94.4929 352.79 90.5456H352.777Z" fill="white"/>
<path d="M365.109 90.5456C365.109 87.0246 367.299 84.3711 370.99 84.3711C374.68 84.3711 376.87 87.0246 376.87 90.5456C376.87 94.0661 374.68 96.7197 370.99 96.7197C367.299 96.7197 365.109 94.0661 365.109 90.5456ZM374.445 90.5456C374.445 88.099 373.324 86.2998 370.99 86.2998C368.656 86.2998 367.534 88.1119 367.534 90.5456C367.534 92.9786 368.63 94.7911 370.99 94.7911C373.35 94.7911 374.445 92.9786 374.445 90.5456Z" fill="white"/>
<path d="M378.738 84.643H381.112V86.5456C381.803 85.3031 383.015 84.3711 384.931 84.3711C387.058 84.3711 388.309 85.3937 388.869 86.8175C389.652 85.4066 390.995 84.3711 393.094 84.3711C396.158 84.3711 397.372 86.4421 397.372 88.8367V96.4348H394.998V88.9403C394.998 87.4258 394.202 86.3127 392.325 86.3127C391.36 86.3127 389.221 86.8305 389.221 89.7429V96.4348H386.849V88.9403C386.849 87.4258 386.053 86.3127 384.175 86.3127C383.302 86.3127 381.502 86.7398 381.138 88.9015V96.4348H378.764V84.63L378.738 84.643Z" fill="white"/>
<path d="M411.19 90.5458C411.19 94.4288 409.182 96.694 406 96.694C404.057 96.694 402.571 95.8136 401.932 94.3119V100.991H399.559V84.6561H401.841V87.1284C402.48 85.4975 403.992 84.4102 405.961 84.4102C409.208 84.4102 411.19 86.6753 411.19 90.5583V90.5458ZM401.946 90.5458C401.946 93.1342 403.197 94.7654 405.323 94.7654C407.448 94.7654 408.752 93.1342 408.752 90.5458C408.752 87.9568 407.474 86.3518 405.323 86.3518C403.171 86.3518 401.946 87.9697 401.946 90.5458Z" fill="white"/>
<path d="M412.285 93.1865C412.285 91.1159 413.837 90.0025 416.862 89.4454L420.617 88.6562V88.0867C420.617 86.8571 419.743 86.2487 418.062 86.2487C416.549 86.2487 415.206 86.8182 415.206 88.3585H412.807C412.807 85.5239 415.232 84.3848 418.114 84.3848C421.451 84.3848 422.964 85.7439 422.964 87.8407V96.4615H420.721V94.2865C419.991 95.6981 418.348 96.7329 416.47 96.7329C414.11 96.7329 412.311 95.465 412.311 93.1999L412.285 93.1865ZM420.604 91.5293V90.1704L417.24 91.0382C415.845 91.4007 414.749 91.9436 414.749 93.1481C414.749 94.1704 415.441 94.8954 416.992 94.8954C418.818 94.8954 420.604 93.6525 420.604 91.5427V91.5293Z" fill="white"/>
<path d="M430.567 86.3256C429.68 86.3256 427.828 86.7398 427.502 89.0439V96.4473H425.129V84.643H427.502V86.4421C428.233 85.2642 429.471 84.3711 431.349 84.3711C434.386 84.3711 435.626 86.4163 435.626 88.8367V96.4348H433.252V88.9403C433.252 87.4258 432.457 86.3127 430.579 86.3127L430.567 86.3256Z" fill="white"/>
<path d="M441.648 96.447H440.58L436.512 84.6426H438.976L442.287 94.4282L445.443 84.6426H447.934L442.47 100.977H440.188L441.648 96.4345V96.447Z" fill="white"/>
</g>
</g>
<defs>
<clipPath id="clip0_18098_6796">
<rect width="448" height="100" fill="white"/>
</clipPath>
</defs>
</svg>
