<svg viewBox="0 0 356.49 566.865" fill="none" xmlns="http://www.w3.org/2000/svg">
<path d="M177.878 566.214V424.283L2.51105 321.609L177.878 566.214Z" fill="#F0CDC2"/>
<path fill-rule="evenodd" clip-rule="evenodd" d="M2.14156 321.272C2.30059 321.098 2.55997 321.058 2.76368 321.177L178.13 423.851C178.284 423.941 178.378 424.105 178.378 424.283V566.214C178.378 566.431 178.238 566.624 178.031 566.69C177.824 566.757 177.598 566.682 177.471 566.506L2.10469 321.9C1.96715 321.708 1.98252 321.446 2.14156 321.272ZM4.28721 323.228L177.378 564.659V424.569L4.28721 323.228Z" fill="#1616B4"/>
<path d="M178.459 566.214V424.283L353.825 321.609L178.459 566.214Z" fill="#C9B3F5"/>
<path fill-rule="evenodd" clip-rule="evenodd" d="M354.194 321.272C354.353 321.446 354.369 321.708 354.231 321.9L178.866 566.506C178.739 566.682 178.513 566.757 178.306 566.69C178.099 566.624 177.959 566.431 177.959 566.214V424.283C177.959 424.105 178.053 423.941 178.207 423.851L353.572 321.177C353.776 321.058 354.035 321.098 354.194 321.272ZM178.959 424.569V564.659L352.049 323.228L178.959 424.569Z" fill="#1616B4"/>
<path d="M177.878 389.004V207.861L0.5 287.383L177.878 389.004Z" fill="#88AAF1"/>
<path fill-rule="evenodd" clip-rule="evenodd" d="M178.15 207.442C178.292 207.534 178.378 207.692 178.378 207.861V389.004C178.378 389.183 178.283 389.347 178.129 389.437C177.975 389.526 177.784 389.527 177.63 389.438L0.25145 287.817C0.088248 287.724 -0.00867547 287.547 0.000612545 287.359C0.00990056 287.171 0.123829 287.004 0.295458 286.927L177.674 207.405C177.828 207.336 178.008 207.349 178.15 207.442ZM1.60083 287.438L177.378 388.142V208.633L1.60083 287.438Z" fill="#1616B4"/>
<path d="M178.458 389.004V207.861L355.837 287.383L178.458 389.004Z" fill="#C9B3F5"/>
<path fill-rule="evenodd" clip-rule="evenodd" d="M178.186 207.442C178.329 207.349 178.508 207.336 178.663 207.405L356.042 286.927C356.213 287.004 356.327 287.171 356.336 287.359C356.346 287.547 356.249 287.724 356.086 287.817L178.707 389.438C178.552 389.527 178.362 389.526 178.208 389.437C178.053 389.347 177.958 389.183 177.958 389.004V207.861C177.958 207.692 178.044 207.534 178.186 207.442ZM178.958 208.633V388.142L354.736 287.438L178.958 208.633Z" fill="#1616B4"/>
<path d="M0.500183 287.384L177.878 0.500061V207.861L0.500183 287.384Z" fill="#F0CDC2"/>
<path fill-rule="evenodd" clip-rule="evenodd" d="M178.015 0.0190861C178.229 0.0801821 178.378 0.276539 178.378 0.500042V207.861C178.378 208.058 178.262 208.237 178.082 208.318L0.704733 287.84C0.504318 287.93 0.268735 287.878 0.124036 287.713C-0.0206623 287.548 -0.0405919 287.307 0.0749111 287.121L177.453 0.237098C177.57 0.0469963 177.8 -0.04201 178.015 0.0190861ZM1.78221 286.261L177.378 207.538V2.25949L1.78221 286.261Z" fill="#1616B4"/>
<path d="M355.837 287.384L178.459 0.500061V207.861L355.837 287.384Z" fill="#B8FAF6"/>
<path fill-rule="evenodd" clip-rule="evenodd" d="M178.323 0.0190861C178.538 -0.04201 178.767 0.0469962 178.885 0.237097L356.262 287.121C356.378 287.307 356.358 287.548 356.213 287.713C356.068 287.878 355.833 287.93 355.632 287.84L178.255 208.318C178.075 208.237 177.959 208.058 177.959 207.861V0.500042C177.959 0.276539 178.108 0.0801821 178.323 0.0190861ZM178.959 2.25949V207.538L354.555 286.261L178.959 2.25949Z" fill="#1616B4"/>
</svg>
