<svg viewBox="0 0 216 39.96" fill="none" xmlns="http://www.w3.org/2000/svg">
<g clip-path="url(#clip0_1344_29083)">
<path d="M1.32082 26.9043L0 7.94894L4.51412 0L9.97551 13.0754L14.2233 18.1163L10.0401 18.0961L8.67676 21.8837L12.915 26.9043H1.32082Z" fill="#C8FF33"/>
<path d="M21.5817 13.0957L22.901 32.0495L18.3869 40L12.9255 26.9231L8.67773 21.8837L12.8624 21.9024L14.2242 18.1163L9.98752 13.0957H21.5817Z" fill="#C8FF33"/>
<path d="M47.4088 19.3929V13.1097H48.5216V26.9028H47.4088V20.6959H34.7475V26.9028H33.6348V13.1097H34.7475V19.3929H47.4088Z" fill="white"/>
<path d="M59.4808 20.984L66.564 13.1097H68.0519L59.9552 22.3057H59.9221V26.9044H58.8093V22.3057H58.7762L50.5645 13.1097H52.0697L59.2507 20.984H59.4792H59.4808Z" fill="white"/>
<path d="M88.4688 13.1097H103.274V14.4128H89.5815V19.3556H102.881V20.6586H89.5815V25.6014H103.274V26.9044H88.4688V13.1113V13.1097Z" fill="white"/>
<path d="M121.496 26.9028H120.122L117.783 22.9175H107.296V26.9028H106.184V13.1097H118.027C118.539 13.1097 119.017 13.2187 119.458 13.4351C119.899 13.6531 120.287 13.9395 120.62 14.2976C120.952 14.6556 121.214 15.0666 121.405 15.5337C121.595 15.9991 121.691 16.4755 121.691 16.9612V18.9726C121.691 19.382 121.617 19.7961 121.471 20.218C121.324 20.6399 121.127 21.0291 120.881 21.3872C120.635 21.7452 120.352 22.0488 120.03 22.2979C119.709 22.547 119.378 22.7104 119.04 22.7867L121.494 26.906L121.496 26.9028ZM120.58 18.6083V17.3053C120.58 16.9223 120.506 16.5518 120.36 16.1937C120.213 15.8357 120.01 15.5259 119.754 15.2643C119.497 15.0028 119.193 14.7957 118.839 14.6416C118.484 14.4891 118.099 14.4112 117.685 14.4112H107.298V21.6144H117.685C118.219 21.6144 118.668 21.5179 119.034 21.3264C119.4 21.135 119.696 20.8921 119.926 20.5979C120.155 20.3036 120.322 19.9783 120.426 19.6202C120.53 19.2622 120.582 18.9243 120.582 18.6052L120.58 18.6083Z" fill="white"/>
<path d="M81.9427 22.9175H71.4565V26.9028H70.3438V13.1097H82.187C82.6993 13.1097 83.1768 13.2187 83.6182 13.4351C84.0595 13.6531 84.4472 13.9395 84.7798 14.2976C85.1124 14.6556 85.374 15.0666 85.5647 15.5337C85.7554 15.9991 85.8516 16.4755 85.8516 16.9612V18.9726C85.8516 19.382 85.7775 19.7961 85.6309 20.218C85.4843 20.6399 85.2873 21.0291 85.0414 21.3872C84.7956 21.7452 84.5118 22.0488 84.1903 22.2979C83.8688 22.547 83.5378 22.7104 83.2005 22.7867M84.7388 18.6083V17.3053C84.7388 16.9223 84.6647 16.5518 84.5181 16.1937C84.3716 15.8357 84.1682 15.5259 83.9129 15.2643C83.656 15.0028 83.3518 14.7957 82.9972 14.6416C82.6425 14.4891 82.2579 14.4112 81.8434 14.4112H71.4565V21.6144H81.8434C82.3777 21.6144 82.8269 21.5179 83.1926 21.3264C83.5583 21.135 83.8546 20.8921 84.0847 20.5979C84.3132 20.3036 84.4803 19.9783 84.5844 19.6202C84.6884 19.2622 84.7404 18.9243 84.7404 18.6052L84.7388 18.6083Z" fill="white"/>
<path d="M137.294 23.2055V13.1097H139.993V26.9028H136.607L127.48 16.8258V26.9028H124.781V13.1097H128.184L137.296 23.2055H137.294Z" fill="white"/>
<path d="M159.679 26.9028H156.57L155.147 24.317H146.232L144.825 26.9028H141.732L148.962 13.1097H152.43L159.677 26.9028H159.679ZM150.518 16.27L147.802 21.1552H153.609L150.86 16.27H150.516H150.518Z" fill="white"/>
<path d="M173.01 13.1097V16.2716H166.467V26.9044H163.769V16.2716H157.307V13.1097H173.01Z" fill="white"/>
<path d="M175.447 13.1097H178.146V26.9028H175.447V13.1097Z" fill="white"/>
<path d="M189.696 24.1442H190.186L196.648 13.1097H199.805L191.904 26.9028H187.995L180.094 13.1097H183.267L189.696 24.1442Z" fill="white"/>
<path d="M201.195 13.1097H216V16.2716H203.895V18.4371H215.608V21.5786H203.895V23.7441H216V26.906H201.195V13.1129V13.1097Z" fill="white"/>
</g>
<defs>
<clipPath id="clip0_1344_29083">
<rect width="216" height="40" fill="white"/>
</clipPath>
</defs>
</svg>
