<svg preserveAspectRatio="xMidYMid meet" data-bbox="0.496 10.105 330.843 88.356" viewBox="3.56811 24.284 327.771 82.0018" xmlns="http://www.w3.org/2000/svg" data-type="color" role="presentation" aria-hidden="true" aria-label="">
    <g>
        <defs>
            <clipPath id="7337523f-565a-4fc4-bd97-4cfb151a73ba_comp-lwc0mosw">
                <path d="M33.383 41.332H54.64V62.59H33.383Zm0 0"></path>
            </clipPath>
            <clipPath id="a3901b40-d09d-4417-af61-8af6ac4c342b_comp-lwc0mosw">
                <path d="M54.508 51.91c0 5.766-4.672 10.45-10.45 10.45-5.773 0-10.44-4.684-10.44-10.45 0-5.77 4.675-10.45 10.448-10.45 5.774 0 10.442 4.68 10.442 10.45"></path>
            </clipPath>
            <clipPath id="762f339d-ba23-4500-b5c3-b747b5354519_comp-lwc0mosw">
                <path d="M61.285 13.098h21.258v21.257H61.285Zm0 0"></path>
            </clipPath>
            <clipPath id="67464862-7d94-406c-b66a-e4cb5a081db4_comp-lwc0mosw">
                <path d="M82.262 23.828c0 5.77-4.676 10.45-10.45 10.45-5.773 0-10.449-4.68-10.449-10.45 0-5.765 4.676-10.45 10.45-10.45 5.773 0 10.449 4.677 10.449 10.45"></path>
            </clipPath>
            <clipPath id="9e619e6c-a94f-41ce-b1de-b2da1a29413b_comp-lwc0mosw">
                <path d="M40.023 78.863h16.61v16.61h-16.61Zm0 0"></path>
            </clipPath>
            <clipPath id="50f67dce-6ffa-4996-a978-756c9a0a5d97_comp-lwc0mosw">
                <path d="M56.52 87.066a8.105 8.105 0 0 1-8.106 8.106c-4.477 0-8.113-3.629-8.113-8.106a8.103 8.103 0 0 1 8.105-8.105 8.1 8.1 0 0 1 8.106 8.105"></path>
            </clipPath>
            <clipPath id="9ef65049-2b37-4c22-bd55-648f8427fcd1_comp-lwc0mosw">
                <path d="M15.113 51H45v32.516H15.113Zm0 0"></path>
            </clipPath>
            <clipPath id="b90bdc5a-7d81-40b5-ac8f-a629cce2f1fa_comp-lwc0mosw">
                <path d="M44.746 52.54 16.668 83.347l-1.375-1.25 28.086-30.813Zm0 0"></path>
            </clipPath>
            <clipPath id="0497e63a-a04c-4dd1-ba1c-33435259e6af_comp-lwc0mosw">
                <path d="M42.684 50.633h28.898V87.5H42.684Zm0 0"></path>
            </clipPath>
            <clipPath id="3cfa6d47-18fa-4165-b939-957c3035962b_comp-lwc0mosw">
                <path d="m47.492 87.184-4.61-36.301 28.571 19.82-1.062 1.527-26.856-18.64.531-.758.922-.117 4.348 34.238Zm0 0"></path>
            </clipPath>
            <clipPath id="4291ed50-256a-40c9-b769-d334c1268c9c_comp-lwc0mosw">
                <path d="M45.672 23.063h26.906v29.562H45.672Zm0 0"></path>
            </clipPath>
            <clipPath id="1df3a35b-0ca1-4928-aae7-4778e8530a65_comp-lwc0mosw">
                <path d="M72.5 24.453 47.066 52.531l-1.375-1.246 25.434-28.078Zm0 0"></path>
            </clipPath>
            <clipPath id="d9c26c32-5c90-4ce0-ad9d-d44743952260_comp-lwc0mosw">
                <path d="M18.434 28.043H43.68v24.582H18.434Zm0 0"></path>
            </clipPath>
            <clipPath id="9251d3ad-6777-4eb8-b3b1-b12cfd0d2c2c_comp-lwc0mosw">
                <path d="m19.863 28.176 23.653 23.07-1.297 1.332-23.653-23.074Zm0 0"></path>
            </clipPath>
            <clipPath id="602315ae-a92d-4e28-b491-791f99948d5b_comp-lwc0mosw">
                <path d="M63.277 63.918h15.278V79H63.277Zm0 0"></path>
            </clipPath>
            <clipPath id="8403ff93-c091-4b47-a2f4-aaf7e02a9d02_comp-lwc0mosw">
                <path d="M78.41 71.465a7.495 7.495 0 0 1-7.496 7.496 7.49 7.49 0 0 1-7.496-7.496 7.49 7.49 0 0 1 7.496-7.496 7.49 7.49 0 0 1 7.496 7.496"></path>
            </clipPath>
            <clipPath id="d07a02dd-a967-4385-9d96-9d524421c0b1_comp-lwc0mosw">
                <path d="M62.281 63h17.27v17H62.28Zm0 0"></path>
            </clipPath>
            <clipPath id="ec8aa966-7463-4e91-834d-95609d040a02_comp-lwc0mosw">
                <path d="M79.34 71.465a8.419 8.419 0 0 1-8.418 8.418c-4.649 0-8.426-3.766-8.426-8.418h.93-.93c0-4.649 3.77-8.422 8.418-8.422v.93-.93a8.426 8.426 0 0 1 8.422 8.422h-.93.93m-1.86 0a6.566 6.566 0 0 0-6.566-6.567 6.553 6.553 0 0 0-6.555 6.567 6.566 6.566 0 1 0 13.133 0Zm0 0"></path>
            </clipPath>
            <clipPath id="4eb3c036-7994-4a4e-99fe-1a975108edff_comp-lwc0mosw">
                <path d="M4.484 71.227h22.918V94H4.484Zm0 0"></path>
            </clipPath>
            <clipPath id="f00fdd06-f5b7-4404-a0d8-361ad83e12fd_comp-lwc0mosw">
                <path d="M27.27 82.719C27.27 88.949 22.215 94 15.988 94 9.762 94 4.7 88.95 4.7 82.719c0-6.235 5.055-11.281 11.281-11.281 6.227 0 11.282 5.054 11.282 11.28"></path>
            </clipPath>
            <clipPath id="7bfaf5fe-8d1a-4adb-87eb-b9221ea2e798_comp-lwc0mosw">
                <path d="M3.488 70.23h24.91V95H3.488Zm0 0"></path>
            </clipPath>
            <clipPath id="d8fa9da0-302d-4896-856b-d6bc3a16671f_comp-lwc0mosw">
                <path d="M28.191 82.719c0 6.742-5.468 12.21-12.21 12.21-6.743 0-12.211-5.46-12.211-12.21h.93-.93c0-6.742 5.468-12.211 12.21-12.211v.93-.93c6.743 0 12.211 5.469 12.211 12.21h-.921.921m-1.859 0c0-5.722-4.637-10.359-10.36-10.359-5.718 0-10.343 4.645-10.343 10.36s4.637 10.355 10.36 10.355A10.351 10.351 0 0 0 26.343 82.72Zm0 0"></path>
            </clipPath>
            <clipPath id="b485030c-abb3-46db-9cd1-b7f622d8a89e_comp-lwc0mosw">
                <path d="M12 21.734h14.406V36H12Zm0 0"></path>
            </clipPath>
            <clipPath id="c3444ef2-b48b-46e8-a43d-62458ebc9eb1_comp-lwc0mosw">
                <path d="M26.32 28.844a7.109 7.109 0 0 1-7.105 7.105 7.105 7.105 0 0 1-7.102-7.105 7.102 7.102 0 0 1 7.102-7.102 7.105 7.105 0 0 1 7.105 7.102"></path>
            </clipPath>
            <clipPath id="b205d4fd-b923-4375-a183-e564ab762bbd_comp-lwc0mosw">
                <path d="M11.129 20.738h16.273V37H11.13Zm0 0"></path>
            </clipPath>
            <clipPath id="da924640-8225-4018-ad14-aa9a1f7345a2_comp-lwc0mosw">
                <path d="M27.25 28.844a8.035 8.035 0 0 1-8.035 8.035c-4.438 0-8.031-3.602-8.031-8.035h.93-.93a8.029 8.029 0 0 1 8.03-8.032v.93-.93a8.032 8.032 0 0 1 8.036 8.032h-.93.93m-1.86 0a6.173 6.173 0 0 0-6.175-6.172 6.17 6.17 0 0 0-6.172 6.172 6.173 6.173 0 1 0 12.348 0Zm0 0"></path>
            </clipPath>
            <clipPath id="19f65607-321b-4f2f-97db-ce388ba5474a_comp-lwc0mosw">
                <path d="M64.473 20.254h8.742v10.914h-8.742Zm0 0"></path>
            </clipPath>
            <clipPath id="ea11ac80-52f1-4521-84b9-30e1e541017a_comp-lwc0mosw">
                <path d="M64.504 28.84c.406-2.824 1.156-5.477 1.867-6.598.445-.715.918-1.156 1.531-1.465.614-.304 1.36-.507 2.075-.406.886.137 2.312.781 2.824 1.496.406.578.375 1.293.34 2.14-.067 1.329-.579 4.083-1.395 4.97-.512.543-1.394.816-2.008.71-.61-.101-1.425-.816-1.734-1.222a1.142 1.142 0 0 1-.238-.715c-.032-.406.035-1.02.308-1.43.34-.472 1.156-1.086 1.766-1.156.613-.066 1.566.344 1.972.852.41.476.547 1.53.41 2.109-.1.477-.476.883-.85 1.156-.376.274-.919.477-1.395.442-.579-.067-1.497-.578-1.872-1.055-.304-.406-.34-.848-.34-1.426 0-.953.477-3.676.887-3.742.305-.07 1.055 1.02 1.157 1.8.168 1.259-.954 4.387-1.735 5.24-.41.44-.953.542-1.394.577-.34.035-.68-.035-.989-.203-.37-.203-.816-.68-1.02-1.055-.167-.304-.167-1.02-.167-1.02"></path>
            </clipPath>
            <clipPath id="1ae37071-075e-4163-9b59-46bb7c7ed5ed_comp-lwc0mosw">
                <path d="M64.008 29.57h2.86v2.922h-2.86Zm0 0"></path>
            </clipPath>
            <clipPath id="6ffcfaea-da9a-447a-ac29-214834d8fe3c_comp-lwc0mosw">
                <path d="M66.781 30.3c-.07 1.462-.34 1.7-.578 1.7-.34 0-1.055-.61-1.156-.95-.07-.238.035-.714.203-.75.238-.066 1.293.852 1.46 1.227a.699.699 0 0 1-.03.645c-.102.168-.375.305-.578.305-.204 0-.477-.137-.579-.305-.101-.172-.136-.477-.07-.645.07-.172.309-.375.477-.41.203-.035.511.035.648.172.133.168.238.61.133.816-.102.204-.473.372-.746.34-.442-.035-1.328-.785-1.633-1.156-.168-.207-.305-.41-.305-.648 0-.239.102-.578.27-.746.172-.172.547-.31.785-.31s.406.138.645.31c.34.27 1.12.918 1.12 1.289 0 .308-.406.785-.644.816-.203.035-.512-.168-.648-.406-.203-.305-.27-1.121-.102-1.461.137-.274.512-.547.75-.512.203.035.578.68.578.68"></path>
            </clipPath>
            <clipPath id="ecd65be9-197f-4bf0-be01-e618ccb76aea_comp-lwc0mosw">
                <path d="M61.168 13.355h20.91v20.907h-20.91Zm0 0"></path>
            </clipPath>
        </defs>
        <g clip-path="url(#7337523f-565a-4fc4-bd97-4cfb151a73ba_comp-lwc0mosw)">
            <g clip-path="url(#a3901b40-d09d-4417-af61-8af6ac4c342b_comp-lwc0mosw)">
                <path d="M.496 10.105h85.035v88.356H.496Zm0 0" fill="#ffffff" data-color="1"></path>
            </g>
        </g>
        <g clip-path="url(#762f339d-ba23-4500-b5c3-b747b5354519_comp-lwc0mosw)">
            <g clip-path="url(#67464862-7d94-406c-b66a-e4cb5a081db4_comp-lwc0mosw)">
                <path d="M.496 10.105h85.035v88.356H.496Zm0 0" fill="#007d00" data-color="2"></path>
            </g>
        </g>
        <g clip-path="url(#9e619e6c-a94f-41ce-b1de-b2da1a29413b_comp-lwc0mosw)">
            <g clip-path="url(#50f67dce-6ffa-4996-a978-756c9a0a5d97_comp-lwc0mosw)">
                <path d="M.496 10.105h85.035v88.356H.496Zm0 0" fill="#ffffff" data-color="1"></path>
            </g>
        </g>
        <g clip-path="url(#9ef65049-2b37-4c22-bd55-648f8427fcd1_comp-lwc0mosw)">
            <g clip-path="url(#b90bdc5a-7d81-40b5-ac8f-a629cce2f1fa_comp-lwc0mosw)">
                <path d="M.496 10.105h85.035v88.356H.496Zm0 0" fill="#ffffff" data-color="1"></path>
            </g>
        </g>
        <g clip-path="url(#0497e63a-a04c-4dd1-ba1c-33435259e6af_comp-lwc0mosw)">
            <g clip-path="url(#3cfa6d47-18fa-4165-b939-957c3035962b_comp-lwc0mosw)">
                <path d="M.496 10.105h85.035v88.356H.496Zm0 0" fill="#ffffff" data-color="1"></path>
            </g>
        </g>
        <g clip-path="url(#4291ed50-256a-40c9-b769-d334c1268c9c_comp-lwc0mosw)">
            <g clip-path="url(#1df3a35b-0ca1-4928-aae7-4778e8530a65_comp-lwc0mosw)">
                <path d="M.496 10.105h85.035v88.356H.496Zm0 0" fill="#ffffff" data-color="1"></path>
            </g>
        </g>
        <g clip-path="url(#d9c26c32-5c90-4ce0-ad9d-d44743952260_comp-lwc0mosw)">
            <g clip-path="url(#9251d3ad-6777-4eb8-b3b1-b12cfd0d2c2c_comp-lwc0mosw)">
                <path d="M.496 10.105h85.035v88.356H.496Zm0 0" fill="#ffffff" data-color="1"></path>
            </g>
        </g>
        <g clip-path="url(#602315ae-a92d-4e28-b491-791f99948d5b_comp-lwc0mosw)">
            <g clip-path="url(#8403ff93-c091-4b47-a2f4-aaf7e02a9d02_comp-lwc0mosw)">
                <path d="M.496 10.105h85.035v88.356H.496Zm0 0" fill="#005900" data-color="3"></path>
            </g>
        </g>
        <g clip-path="url(#d07a02dd-a967-4385-9d96-9d524421c0b1_comp-lwc0mosw)">
            <g clip-path="url(#ec8aa966-7463-4e91-834d-95609d040a02_comp-lwc0mosw)">
                <path d="M.496 10.105h85.035v88.356H.496Zm0 0" fill="#ffffff" data-color="1"></path>
            </g>
        </g>
        <g clip-path="url(#4eb3c036-7994-4a4e-99fe-1a975108edff_comp-lwc0mosw)">
            <g clip-path="url(#f00fdd06-f5b7-4404-a0d8-361ad83e12fd_comp-lwc0mosw)">
                <path d="M.496 10.105h85.035v88.356H.496Zm0 0" fill="#007d00" data-color="2"></path>
            </g>
        </g>
        <g clip-path="url(#7bfaf5fe-8d1a-4adb-87eb-b9221ea2e798_comp-lwc0mosw)">
            <g clip-path="url(#d8fa9da0-302d-4896-856b-d6bc3a16671f_comp-lwc0mosw)">
                <path d="M.496 10.105h85.035v88.356H.496Zm0 0" fill="#ffffff" data-color="1"></path>
            </g>
        </g>
        <g clip-path="url(#b485030c-abb3-46db-9cd1-b7f622d8a89e_comp-lwc0mosw)">
            <g clip-path="url(#c3444ef2-b48b-46e8-a43d-62458ebc9eb1_comp-lwc0mosw)">
                <path d="M.496 10.105h85.035v88.356H.496Zm0 0" fill="#ffffff" data-color="1"></path>
            </g>
        </g>
        <g clip-path="url(#b205d4fd-b923-4375-a183-e564ab762bbd_comp-lwc0mosw)">
            <g clip-path="url(#da924640-8225-4018-ad14-aa9a1f7345a2_comp-lwc0mosw)">
                <path d="M.496 10.105h85.035v88.356H.496Zm0 0" fill="#ffffff" data-color="1"></path>
            </g>
        </g>
        <g clip-path="url(#19f65607-321b-4f2f-97db-ce388ba5474a_comp-lwc0mosw)">
            <g clip-path="url(#ea11ac80-52f1-4521-84b9-30e1e541017a_comp-lwc0mosw)">
                <path d="M63.14 19.012H74.5V32.5H63.14Zm0 0" fill="#007d00" data-color="2"></path>
            </g>
        </g>
        <g clip-path="url(#1ae37071-075e-4163-9b59-46bb7c7ed5ed_comp-lwc0mosw)">
            <g clip-path="url(#6ffcfaea-da9a-447a-ac29-214834d8fe3c_comp-lwc0mosw)">
                <path d="M62.664 28.227h5.547v5.609h-5.547Zm0 0" fill="#007d00" data-color="2"></path>
            </g>
        </g>
        <g clip-path="url(#ecd65be9-197f-4bf0-be01-e618ccb76aea_comp-lwc0mosw)">
            <path d="M71.746 13.355c-5.844 0-10.578 4.735-10.578 10.579 0 5.843 4.734 10.574 10.578 10.574A10.57 10.57 0 0 0 82.32 23.934c0-5.844-4.73-10.579-10.574-10.579Zm0 19.04a8.46 8.46 0 0 1-8.46-8.461 8.457 8.457 0 0 1 8.46-8.461 8.457 8.457 0 0 1 8.461 8.46 8.46 8.46 0 0 1-8.46 8.462Zm0 0" fill="#ffffff" data-color="1"></path>
        </g>
        <path d="M88.626 39.502h4.25l4.312 11.984.875 2.625.719 2.125h.14c.383-1.144.626-1.89.72-2.234l.828-2.516 4.25-11.984h4.25V63.08h-3.391V51.346c0-1.301.133-3.453.406-6.453l.063-.829h-.141l-1.875 5.438-4.14 11.281h-2.266l-4.14-11.281-1.876-5.438h-.14l.078.828c.257 3 .39 5.153.39 6.454V63.08h-3.312Zm0 0" fill="#ffffff" data-color="1"></path>
        <path d="M126.036 56.346h-8.203l-2.016 6.734h-3.75l7.813-23.578h4.25l7.812 23.578h-3.89Zm-.86-2.907-.937-3.172a187.24 187.24 0 0 1-1.14-3.921c-.419-1.489-.727-2.57-.923-3.25a3.203 3.203 0 0 0-.172-.672h-.14a209.135 209.135 0 0 1-2.203 7.843l-.938 3.172Zm0 0" fill="#ffffff" data-color="1"></path>
        <path d="M135.035 39.502h4.25l4.312 11.984.875 2.625.719 2.125h.14c.383-1.144.626-1.89.72-2.234l.828-2.516 4.25-11.984h4.25V63.08h-3.391V51.346c0-1.301.133-3.453.406-6.453l.063-.829h-.141l-1.875 5.438-4.14 11.281h-2.266l-4.14-11.281-1.876-5.438h-.14l.078.828c.257 3 .39 5.153.39 6.454V63.08h-3.312Zm0 0" fill="#ffffff" data-color="1"></path>
        <path d="m174.46 63.08-5.297-9.547h-3.921v9.547h-3.672V39.502h7.703c2.644 0 4.723.539 6.234 1.61 1.508 1.062 2.266 2.808 2.266 5.234 0 1.75-.438 3.183-1.313 4.297-.875 1.117-2.086 1.914-3.625 2.39l5.766 10.047Zm-9.218-12.484h3.609c1.719 0 3.023-.352 3.922-1.063.906-.707 1.36-1.77 1.36-3.187 0-1.395-.438-2.391-1.313-2.985-.875-.601-2.2-.906-3.969-.906h-3.61Zm0 0" fill="#ffffff" data-color="1"></path>
        <path d="M193.399 56.346h-8.203l-2.016 6.734h-3.75l7.813-23.578h4.25l7.812 23.578h-3.89Zm-.86-2.907-.937-3.172a187.24 187.24 0 0 1-1.14-3.921c-.419-1.489-.727-2.57-.923-3.25a3.203 3.203 0 0 0-.171-.672h-.141a209.135 209.135 0 0 1-2.203 7.843l-.938 3.172Zm0 0" fill="#ffffff" data-color="1"></path>
        <path d="M202.399 39.502h4.25l4.312 11.984.875 2.625.719 2.125h.14c.383-1.144.626-1.89.72-2.234l.828-2.516 4.25-11.984h4.25V63.08h-3.391V51.346c0-1.301.133-3.453.406-6.453l.063-.829h-.141l-1.875 5.438-4.14 11.281h-2.266l-4.14-11.281-1.876-5.438h-.14l.078.828c.257 3 .39 5.153.39 6.454V63.08H202.4Zm0 0" fill="#ffffff" data-color="1"></path>
        <path d="M242.876 63.517a11.73 11.73 0 0 1-4.594-.921 11.56 11.56 0 0 1-3.797-2.578l2.157-2.516a10.063 10.063 0 0 0 2.953 2.062c1.101.5 2.223.75 3.36.75 1.382 0 2.472-.304 3.265-.922.789-.613 1.187-1.437 1.187-2.468 0-.664-.152-1.223-.453-1.672a3.377 3.377 0 0 0-1.187-1.094c-.492-.289-1.203-.629-2.14-1.016l-3.267-1.437c-3.199-1.32-4.796-3.375-4.796-6.156 0-1.227.328-2.332.984-3.313.664-.976 1.586-1.75 2.766-2.312 1.175-.57 2.492-.86 3.953-.86 1.375 0 2.68.266 3.922.797a9.957 9.957 0 0 1 3.218 2.157l-1.922 2.343c-1.585-1.394-3.324-2.093-5.218-2.093-1.219 0-2.188.277-2.906.828-.72.554-1.079 1.297-1.079 2.234 0 .625.172 1.156.516 1.594.344.43.758.777 1.25 1.047.5.261 1.18.57 2.047.922l3.266 1.406c1.539.625 2.722 1.437 3.546 2.437.832.992 1.25 2.293 1.25 3.907a6.23 6.23 0 0 1-1.015 3.468c-.668 1.043-1.625 1.871-2.875 2.485-1.25.613-2.715.922-4.39.922Zm0 0" fill="#007d00" data-color="2"></path>
        <path d="M255.584 39.502h13.937v3.094h-10.265v6.625h8.672v3.093h-8.672v7.672h10.625v3.094h-14.297Zm0 0" fill="#007d00" data-color="2"></path>
        <path d="M274.774 39.502h13.937v3.094h-10.265v6.625h8.671v3.093h-8.671v7.672h10.625v3.094h-14.297Zm0 0" fill="#007d00" data-color="2"></path>
        <path d="M293.964 39.502h6.125c3.644 0 6.445.996 8.406 2.984 1.957 1.992 2.938 4.899 2.938 8.719 0 3.813-.977 6.746-2.922 8.797-1.95 2.055-4.7 3.078-8.25 3.078h-6.297Zm5.875 20.594c2.539 0 4.476-.75 5.812-2.25 1.332-1.5 2-3.711 2-6.641 0-2.906-.664-5.082-1.984-6.531-1.324-1.457-3.266-2.188-5.828-2.188h-2.203v17.61Zm0 0" fill="#007d00" data-color="2"></path>
        <path d="M323.058 63.517a11.73 11.73 0 0 1-4.594-.921 11.56 11.56 0 0 1-3.796-2.578l2.156-2.516a10.063 10.063 0 0 0 2.953 2.062c1.101.5 2.223.75 3.36.75 1.382 0 2.472-.304 3.265-.922.789-.613 1.187-1.437 1.187-2.468 0-.664-.152-1.223-.453-1.672a3.377 3.377 0 0 0-1.187-1.094c-.492-.289-1.203-.629-2.14-1.016l-3.267-1.437c-3.199-1.32-4.796-3.375-4.796-6.156 0-1.227.328-2.332.984-3.313.664-.976 1.586-1.75 2.766-2.312 1.175-.57 2.492-.86 3.953-.86 1.375 0 2.68.266 3.922.797a9.957 9.957 0 0 1 3.218 2.157l-1.921 2.343c-1.586-1.394-3.325-2.093-5.22-2.093-1.218 0-2.187.277-2.905.828-.72.554-1.079 1.297-1.079 2.234 0 .625.172 1.156.516 1.594.344.43.758.777 1.25 1.047.5.261 1.18.57 2.047.922l3.266 1.406c1.539.625 2.722 1.437 3.546 2.437.832.992 1.25 2.293 1.25 3.907a6.23 6.23 0 0 1-1.015 3.468c-.668 1.043-1.625 1.871-2.875 2.485-1.25.613-2.715.922-4.39.922Zm0 0" fill="#007d00" data-color="2"></path>
    </g>
</svg>