<?xml version="1.0" encoding="UTF-8"?>
<svg xmlns:xodm="http://www.corel.com/coreldraw/odm/2003" xmlns="http://www.w3.org/2000/svg" xmlns:xlink="http://www.w3.org/1999/xlink" version="1.1" id="Layer_1" x="0px" y="0px" viewBox="0 0 2500 694.643" style="enable-background:new 0 0 2500 694;" xml:space="preserve">
<style type="text/css">
	.st0{fill:#2D2D2D;}
</style>
<g id="Layer_x0020_1">
	<g>
		<path class="st0" d="M382.5,693.7h1.7c21.7,0,40-16.7,41.7-40l6.7-53.3c-16.7,3.3-33.3,5-50,5c-16.7,0-33.3-1.7-50-5l6.7,53.3    c1.7,21.7,20,40,41.7,40H382.5L382.5,693.7z M680.8,682h81.7V212c0-65-30-106.7-81.7-123.3V682z M0.8,682h81.7V88.7    C29.2,105.3,0.8,148.7,0.8,212V682z M432.5,602c53.3-13.3,88.3-51.7,98.3-118.3l51.7-400c-60,15-91.7,60-101.7,133.3L432.5,602z     M330.8,602l-48.3-385c-10-73.3-41.7-118.3-101.7-133.3l51.7,400C240.8,550.3,275.8,588.7,330.8,602L330.8,602z M680.8,88.7V52    c0-33.3-18.3-51.7-45-51.7s-43.3,15-48.3,48.3l-5,35c13.3-3.3,26.7-3.3,40-3.3C642.5,80.3,662.5,83.7,680.8,88.7L680.8,88.7z     M82.5,88.7c18.3-5,36.7-8.3,55-8.3h1.7c1.7,0,3.3,0,3.3,0c13.3,0,25,1.7,36.7,3.3l-5-35c-5-33.3-23.3-48.3-48.3-48.3    c-26.7,0-45,18.3-45,51.7v36.7H82.5z"></path>
	</g>
	<rect x="959.2" y="12" class="st0" width="80" height="670"></rect>
	<g>
		<path class="st0" d="M1685.8,693.7c28.3,0,45-20,45-51.7v-36.7c-18.3,5-38.3,8.3-58.3,8.3h-1.7h-1.7c-13.3,0-25-1.7-38.3-3.3    l8.3,38.3C1645.8,675.3,1657.5,693.7,1685.8,693.7L1685.8,693.7z M1235.8,682h81.7V88.7c-48.3,16.7-81.7,53.3-81.7,120V682z     M1630.8,610.3l-95-408.3c-18.3-78.3-56.7-111.7-116.7-120l93.3,408.3C1529.2,568.7,1570.8,602,1630.8,610.3L1630.8,610.3z     M1730.8,605.3c48.3-16.7,81.7-51.7,81.7-105V12h-81.7V605.3z M1317.5,90.3c18.3-6.7,38.3-10,58.3-10c1.7,0,1.7,0,3.3,0h1.7    c13.3,0,25,1.7,38.3,3.3l-10-41.7c-5-21.7-18.3-40-46.7-40c-30,0-45,23.3-45,51.7V92V90.3z"></path>
	</g>
	<path class="st0" d="M1919.2,682h86.7l51.7-205h305l51.7,205h86.7l-133.3-486.7c-15-55-51.7-93.3-101.7-108.3l81.7,323.3h-271.7   l80-323.3c-51.7,15-86.7,53.3-101.7,108.3L1922.5,682H1919.2z M2154.2,87c18.3-5,36.7-8.3,55-8.3s36.7,3.3,55,8.3l-10-43.3   c-6.7-26.7-18.3-43.3-43.3-43.3s-36.7,16.7-43.3,43.3l-10,43.3H2154.2z"></path>
</g>
</svg>
