<svg xmlns="http://www.w3.org/2000/svg" width="64" height="42" fill="none"><path fill="#fff" d="M46.15 41.767c-.186-.044-.376-.076-.557-.133-.692-.215-1.279-.611-1.824-1.078l-.411-.353v1.35H38.4V.232h5.45v13.097c.118-.089.196-.16.285-.213.447-.267.877-.575 1.35-.785.734-.326 1.512-.296 2.294-.165 1.23.207 2.015.905 2.43 2.077.376 1.057.475 2.158.48 3.255.023 6.12.013 12.24.007 18.36 0 .495-.064.99-.095 1.485a8.877 8.877 0 0 1-.502 2.37c-.358 1.027-1.06 1.667-2.12 1.903-.274.061-.552.102-.829.152h-1ZM45.2 26.98c0-3.027.004-6.053-.008-9.08a2.494 2.494 0 0 0-.179-.858c-.05-.131-.232-.25-.378-.297-.18-.058-.335.028-.45.213-.252.406-.275.865-.276 1.306-.013 5.802-.013 11.604 0 17.406 0 .378.107.759.195 1.132.055.236.2.412.485.4.263-.012.41-.16.46-.402.061-.295.143-.594.144-.893.01-2.976.007-5.952.007-8.928ZM28.05 41.767c-.22-.044-.442-.08-.659-.132-.844-.208-1.404-.745-1.743-1.533a5.306 5.306 0 0 1-.4-1.711c-.208-2.76-.07-5.522-.086-8.283a8.345 8.345 0 0 1 .437-2.762c.326-.95.89-1.691 1.88-1.986 1.092-.325 2.188-.32 3.244.165.347.16.673.364 1.01.547.047.026.099.046.166.077v-.22c0-2.65.007-5.301-.009-7.951-.002-.319-.107-.642-.2-.952-.062-.206-.217-.354-.461-.34-.255.013-.414.177-.47.398-.08.316-.151.645-.153.968-.014 1.998-.007 3.997-.007 5.995v.293h-5.438c-.004-.076-.011-.157-.011-.238 0-2.173-.04-4.348.014-6.52.03-1.282.414-2.48 1.248-3.501.663-.812 1.459-1.425 2.468-1.713a7.652 7.652 0 0 1 1.395-.24c.536-.05 1.077-.063 1.614-.054 1.247.022 2.418.32 3.401 1.126a5.265 5.265 0 0 1 1.852 3.025c.11.511.192 1.04.199 1.561.035 2.714.052 5.428.056 8.142.008 5.1.002 10.2.002 15.3v.319h-5.488v-.88l-.747.412a5.862 5.862 0 0 1-1.691.626c-.124.025-.25.041-.374.062h-1.05Zm2.55-8.125c0 .784-.009 1.57.005 2.354.003.243.035.496.113.725.118.348.325.508.536.486.242-.025.407-.14.49-.494.08-.34.144-.694.149-1.043.016-1.369.02-2.738-.002-4.107-.007-.386-.104-.774-.191-1.155-.053-.232-.214-.399-.48-.377-.25.02-.407.19-.463.416-.075.3-.142.609-.15.915-.021.76-.008 1.52-.008 2.28ZM0 17.237c.066-.324.127-.65.2-.972a5.635 5.635 0 0 1 1.193-2.418c.774-.922 1.762-1.478 2.922-1.657.805-.124 1.635-.128 2.452-.11.92.022 1.813.222 2.63.689a5.441 5.441 0 0 1 1.933 1.862c.449.713.661 1.508.814 2.322.044.234.054.477.054.716.003 6.195.017 12.39-.01 18.585a5.522 5.522 0 0 1-1.185 3.426c-.751.964-1.708 1.624-2.904 1.908-.277.066-.565.085-.848.13-.051.008-.1.032-.15.048H4.95c-.06-.016-.117-.036-.176-.05-.451-.1-.915-.158-1.35-.305-.9-.303-1.634-.862-2.21-1.617a5.463 5.463 0 0 1-1.014-2.2C.13 37.263.067 36.93 0 36.6V17.237Zm6.75 9.708c0-2.976.005-5.952-.006-8.927-.001-.306-.075-.617-.152-.916-.052-.205-.17-.394-.423-.416-.274-.025-.45.122-.516.366-.088.32-.183.651-.194.98-.027.86-.009 1.72-.009 2.582 0 5.065-.001 10.13.003 15.195 0 .378.046.754.247 1.09.101.17.24.26.446.256.201-.004.344-.101.39-.281.089-.347.204-.701.206-1.053.016-2.959.009-5.917.009-8.876Z" style="fill:#fff;fill-opacity:1"/><path fill="#fff" d="M18.7 36.095h5.438v5.453H13.252v-31.43H9.268V4.65c1.13-.033 2.08-.485 2.823-1.332.77-.878 1.12-1.927 1.16-3.088h5.45v35.865ZM56.8 41.767c-.286-.05-.572-.094-.855-.151a5.018 5.018 0 0 1-2.287-1.112c-.917-.78-1.45-1.782-1.739-2.926-.1-.395-.156-.81-.163-1.218-.032-2.078-.04-4.156-.056-6.235 0-.04.005-.08.008-.133h4.94v.283c0 1.814-.006 3.628.008 5.442.002.306.067.62.15.916.119.424.413.57.936.518a.714.714 0 0 0 .653-.658 16.3 16.3 0 0 0 .1-1.333 41.82 41.82 0 0 0 .001-1.956c-.017-.81-.142-1.606-.553-2.32a5.237 5.237 0 0 0-.7-.976c-1.008-1.073-2.062-2.104-3.055-3.19-.734-.804-1.447-1.636-1.905-2.646a5.983 5.983 0 0 1-.486-1.739c-.191-1.52-.115-3.048-.08-4.568.032-1.409.45-2.714 1.385-3.83.802-.956 1.807-1.538 3.01-1.752.878-.156 1.767-.141 2.66-.024.975.129 1.845.48 2.608 1.084a5.13 5.13 0 0 1 1.536 2.014c.328.755.521 1.535.532 2.357.022 1.584.036 3.17.05 4.754.005.484.001.969.001 1.472h-5v-.263c0-1.706.01-3.41-.006-5.116-.005-.44-.084-.883-.147-1.321-.034-.24-.252-.436-.457-.455-.255-.023-.424.069-.513.36-.088.286-.163.59-.169.887-.02.986-.005 1.973-.008 2.96-.003.853.267 1.617.699 2.346.647 1.095 1.569 1.943 2.468 2.806.938.9 1.89 1.78 2.576 2.9.469.766.821 1.579.959 2.475.026.173.066.345.099.517v4.515c-.033.197-.047.4-.103.59-.178.6-.312 1.223-.573 1.785a4.788 4.788 0 0 1-1.335 1.684 5.207 5.207 0 0 1-2.286 1.107c-.283.057-.569.101-.853.15H56.8Z" style="fill:#fff;fill-opacity:1"/></svg>