<svg viewBox="35.9293 35.9293 657.141 128.096" fill="none" xmlns="http://www.w3.org/2000/svg">
<path d="M89.2494 79.5209L75.937 71.8399L36 94.8805V140.959L75.937 164L115.877 140.959V69.2796L138.063 56.4803L160.252 69.2796V94.8805L138.063 107.68L124.751 100.001V120.479L138.063 128.16L178 105.119V59.0406L138.063 36L98.1259 59.0406V130.72L75.937 143.52L53.7506 130.72V105.119L75.937 92.3202L89.2494 99.9988V79.5209Z" fill="#670DE5"/>
<path fill-rule="evenodd" clip-rule="evenodd" d="M372.793 135.155H390.764V37H372.793V135.155ZM257.263 65.3834C265.78 65.3834 272.842 68.7927 278.426 75.601C284.021 82.4093 286.808 90.8549 286.808 100.938C286.808 111.021 284.011 119.466 278.426 126.275C272.831 133.083 265.78 136.492 257.263 136.492C251.231 136.492 245.989 134.637 241.559 130.917C237.212 127.114 234.019 121.984 231.971 115.528V161.684H214V66.7098H231.971V86.3368C234.009 79.8808 237.212 74.7927 241.559 71.0829C246 67.2798 251.231 65.3834 257.263 65.3834ZM250.732 120.171C255.609 120.171 259.738 118.358 263.107 114.731C266.477 111.021 268.162 106.42 268.162 100.938C268.162 95.456 266.477 91.0311 263.107 87.4041C259.738 83.6943 255.609 81.829 250.732 81.829C245.314 81.829 240.842 83.6425 237.285 87.2694C233.739 90.8964 231.96 95.4456 231.96 100.927C231.96 106.409 233.739 111.01 237.285 114.72C240.831 118.347 245.314 120.161 250.732 120.161V120.171ZM291.582 100.938C291.582 111.021 295.087 119.466 302.096 126.275C309.105 133.083 317.851 136.492 328.324 136.492C338.796 136.492 347.543 133.083 354.552 126.275C361.561 119.466 365.066 111.021 365.066 100.938C365.066 90.8549 361.561 82.4093 354.552 75.601C347.543 68.7927 338.796 65.3834 328.324 65.3834C317.851 65.3834 309.105 68.7927 302.096 75.601C295.087 82.4093 291.582 90.8549 291.582 100.938ZM315.408 114.731C311.944 111.021 310.218 106.42 310.218 100.938C310.218 95.456 311.944 91.0311 315.408 87.4041C318.871 83.6943 323.176 81.829 328.324 81.829C333.472 81.829 337.777 83.6425 341.24 87.2694C344.703 90.8964 346.43 95.4456 346.43 100.927C346.43 106.409 344.703 111.01 341.24 114.72C337.777 118.347 333.472 120.161 328.324 120.161C323.176 120.161 318.871 118.347 315.408 114.72V114.731ZM556.785 126.275C549.775 119.466 546.271 111.021 546.271 100.938C546.271 90.8549 549.775 82.4093 556.785 75.601C563.794 68.7927 572.54 65.3834 583.013 65.3834C593.485 65.3834 602.231 68.7927 609.241 75.601C616.25 82.4093 619.755 90.8549 619.755 100.938C619.755 111.021 616.25 119.466 609.241 126.275C602.231 133.083 593.485 136.492 583.013 136.492C572.54 136.492 563.804 133.083 556.785 126.275ZM564.896 100.938C564.896 106.42 566.623 111.021 570.086 114.731C573.549 118.358 577.854 120.171 583.002 120.171C588.15 120.171 592.456 118.358 595.919 114.731C599.382 111.021 601.108 106.42 601.108 100.938C601.108 95.456 599.382 90.8964 595.919 87.2798C592.456 83.6528 588.15 81.8394 583.002 81.8394C577.854 81.8394 573.549 83.6943 570.086 87.4145C566.623 91.0415 564.896 95.5492 564.896 100.948V100.938ZM667.583 65.3834C675.217 65.3834 681.342 68.0363 685.949 73.342C690.65 78.6477 693 85.4145 693 93.6321V135.145H675.029V96.8135C675.029 92.3886 673.615 88.7617 670.765 85.9326C667.926 83.1036 664.38 81.6839 660.116 81.6839C655.322 81.6839 651.422 83.1036 648.406 85.9326C645.39 88.7617 643.882 92.3886 643.882 96.8135V135.145H625.911V66.7098H643.882V84.2228C645.661 78.3886 648.635 73.7876 652.805 70.4301C657.069 67.0725 661.988 65.3938 667.583 65.3938V65.3834ZM433.933 116.907L452.299 66.772H470.54L432.737 161.746H414.496L424.084 137.601L395.995 66.772H415.432L433.933 116.907ZM521.644 66.7098V83.8601C517.9 72.6684 508.655 66.7098 496.352 66.7098C477.778 66.7098 466.796 82.8756 466.796 99.8705C466.796 116.865 477.695 134.358 496.352 134.358C508.655 134.358 517.9 125.518 521.644 114.326V127.456C521.644 133.031 519.824 137.622 516.184 141.249C512.544 144.876 508.114 146.689 502.873 146.689C495.77 146.689 490.497 143.155 487.034 136.078L470.925 144.565C473.941 150.14 478.246 154.596 483.841 157.964C489.436 161.321 495.78 163 502.873 163C513.345 163 522.091 159.601 529.101 152.782C536.11 145.974 539.615 137.528 539.615 127.446V66.7098H521.644ZM516.455 112.876C512.992 116.326 508.644 118.047 503.413 118.047C498.182 118.047 494.095 116.326 490.632 112.876C487.169 109.342 485.443 105.01 485.443 99.8808C485.443 94.7513 487.169 90.4611 490.632 87.0104C494.095 83.5596 498.349 81.8394 503.413 81.8394C508.478 81.8394 513.002 83.5596 516.455 87.0104C519.918 90.3679 521.644 94.658 521.644 99.8808C521.644 105.104 519.918 109.435 516.455 112.876Z" fill="white"/>
</svg>
