<svg version="1.1" id="Layer_1" xmlns:x="ns_extend;" xmlns:i="ns_ai;" xmlns:graph="ns_graphs;" xmlns="http://www.w3.org/2000/svg" xmlns:xlink="http://www.w3.org/1999/xlink" x="0px" y="0px" viewBox="0 0 360 66.0857" style="enable-background:new 0 0 360 66;" xml:space="preserve">
 <style type="text/css">
  .st0{fill-rule:evenodd;clip-rule:evenodd;fill:#FFFFFF;}
 </style>
 <metadata>
  <sfw xmlns="ns_sfw;">
   <slices>
   </slices>
   <sliceSourceBounds bottomLeftOrigin="true" height="66" width="360" x="0" y="0">
   </sliceSourceBounds>
  </sfw>
 </metadata>
 <desc>
  Created with Sketch.
 </desc>
 <g id="Hovers_x2C_-Color_x2C_-Fonts-_x26_-Icons">
  <g id="Group-23">
   <path id="Fill-1" class="st0" d="M105,42c0,5.1-2.9,8-8.6,8H82.7v-6h12.1c1.8,0,2.6-0.6,2.6-2.2c0-1.3-1-2.1-3.1-3.5l-7.2-5.5
			c-3.6-2.7-5.2-5.3-5.2-8.3c0-5.1,3.1-7.5,9.1-7.5h13.4v6h-12c-1.9,0-2.8,0.6-2.8,2.2c0,1.2,1,2,3.1,3.4l7.1,4.9
			C103.5,36,105,39,105,42">
   </path>
   <polygon id="Fill-3" class="st0" points="133,23 124.3,23 124.3,50 116.7,50 116.7,23 108,23 108,17 133,17 		">
   </polygon>
   <path id="Fill-5" class="st0" d="M153.6,38.1L149,25.1l-4.6,13.1H153.6z M155.6,43.6h-13.2l-2.2,6.4H132l13.1-33h7.9L166,50h-8.1
			L155.6,43.6z">
   </path>
   <path id="Fill-7" class="st0" d="M179,32.6c4.2,0,5.4-1.5,5.4-4.9c0-3.5-1.2-5-5.4-5h-3.3v9.9H179z M193,50h-7.7l-1.5-6.3
			c-1-4.4-1.8-5.6-5.2-5.6h-3.1V50H168V17h13.7c7.1,0,10.4,3.1,10.4,9.9c0,4.6-1.8,7.4-5.5,8.5c2.6,1.2,3.9,3.7,5,8.3L193,50z">
   </path>
   <path id="Fill-9" class="st0" d="M205.4,33l11.9-16h8.9l-12.5,16L227,50h-8.9L205.4,33z M198,50h7.4V17H198V50z">
   </path>
   <polygon id="Fill-11" class="st0" points="276,17 266,50 261.4,50 253.5,23.6 245.6,50 240.9,50 231,17 235.6,17 243.4,44.9 
			251.6,17 255.3,17 263.6,44.9 271.4,17 		">
   </polygon>
   <path id="Fill-13" class="st0" d="M295.8,38.3l-6.2-16.5l-6.3,16.5H295.8z M297,41.4H282l-3.3,8.6H274l13.2-33h4.6L305,50h-4.8
			L297,41.4z">
   </path>
   <path id="Fill-15" class="st0" d="M319.4,33.2c5.2,0,7.2-2,7.2-6.5c0-4.3-2-6.4-7.2-6.4h-6v12.9H319.4z M332,50h-4.4l-1.2-5.7
			c-1.2-5.9-2.7-7.9-7.2-8h-5.8V50H309V17h11.8c7,0,10.1,3.1,10.1,9.3c0,4.7-2,7.6-6.1,8.5c3.2,1.2,4.7,4,5.9,9.5L332,50z">
   </path>
   <g id="Fill-17">
    <path id="path-1_1_" class="st0" d="M343.4,20.5v10h14.7v3.3h-14.7v7.1c0,3.9,1.7,5.7,5.6,5.7h11V50h-11.7
				c-6.9,0-9.3-2.3-9.3-8.8V17h21v3.5H343.4z">
    </path>
   </g>
   <path id="Fill-20" class="st0" d="M32,37.2l-5.7,5.8c0,0,0,0,0,0c0,0,0,0,0,0c0,0-0.1,0-0.1-0.1c0,0,0,0,0,0c0,0,0,0,0,0l2.2-8.3
			c0.2-0.6,0-1.3-0.4-1.7l-5.7-5.8c0,0,0,0,0,0c0,0,0,0,0,0c0-0.1,0-0.1,0.1-0.1c0,0,0,0,0,0c0,0,0,0,0,0l8,2.2
			c0.6,0.2,1.2,0,1.7-0.4l5.7-5.8c0,0,0,0,0,0c0,0,0,0,0,0c0,0,0.1,0,0.1,0.1c0,0,0,0,0,0l0,0l-2.2,8.3c-0.2,0.6,0,1.3,0.4,1.7
			l5.7,5.8c0,0,0,0,0,0c0,0,0,0,0,0c0,0.1,0,0.1-0.1,0.1c0,0,0,0,0,0c0,0,0,0,0,0l-8-2.2C33.1,36.6,32.4,36.8,32,37.2 M63.8,32.4
			L50.2,18.5c-0.5-0.5-1.1-0.6-1.7-0.4l-8.9,2.5c0,0,0,0,0,0c0,0,0,0,0,0c0,0-0.1,0-0.1-0.1c0,0,0-0.1,0-0.1c0,0,0,0,0,0
			c1-0.7,2.4-1.9,6-5.5c0.3-0.3,0.3-0.9,0-1.2l-13-13.4c-0.3-0.3-0.9-0.3-1.2,0L17.9,14.2c-0.5,0.5-0.6,1.1-0.4,1.7l2.4,9.2
			c0,0,0,0,0,0c0,0,0,0,0,0c0,0.1,0,0.1-0.1,0.1c0,0-0.1,0-0.1,0c0,0,0,0,0,0c-0.6-1-1.8-2.5-5.3-6.1c-0.3-0.3-0.9-0.3-1.2,0
			l-13,13.4c-0.3,0.3-0.3,0.9,0,1.2l13.5,13.9c0.5,0.5,1.1,0.6,1.7,0.4l8.9-2.5c0,0,0,0,0,0c0,0,0,0,0,0c0,0,0.1,0,0.1,0.1
			c0,0,0,0.1,0,0.1c0,0,0,0,0,0c-1,0.7-2.4,1.9-6,5.5c-0.3,0.3-0.3,0.9,0,1.2l13,13.4c0.3,0.3,0.9,0.3,1.2,0l13.5-13.9
			c0.5-0.5,0.6-1.1,0.4-1.7l-2.4-9.2c0,0,0,0,0,0c0,0,0,0,0,0c0-0.1,0-0.1,0.1-0.1c0,0,0.1,0,0.1,0v0c0.6,1,1.8,2.5,5.3,6.1
			c0.3,0.3,0.9,0.3,1.2,0l13-13.4C64.1,33.3,64.1,32.7,63.8,32.4">
   </path>
  </g>
 </g>
</svg>