<svg viewBox="0 0 112 34" fill="none" xmlns="http://www.w3.org/2000/svg">
<g clip-path="url(#clip0_857_7180)">
<mask id="mask0_857_7180" style="mask-type:luminance" maskUnits="userSpaceOnUse" x="0" y="0" width="34" height="34">
<path d="M33.1268 0H0V34H33.1268V0Z" fill="white"/>
</mask>
<g mask="url(#mask0_857_7180)">
<path d="M19.6145 0H13.5122C6.04965 0 0 6.20912 0 13.8684V20.1316C0 27.7909 6.04965 34 13.5122 34H19.6145C27.0771 34 33.1268 27.7909 33.1268 20.1316V13.8684C33.1268 6.20912 27.0771 0 19.6145 0Z" fill="#0E0E52"/>
<path fill-rule="evenodd" clip-rule="evenodd" d="M10.3516 7.4375H19.6831H22.7741V14.0629H19.6831V9.84721H10.3516V7.4375ZM22.7741 19.9032H19.6831V24.1491H10.3516V26.5588H19.6831V26.5626H22.7741V19.9032ZM18.292 15.8005V18.2233H12.8522V15.8005H18.292Z" fill="#F1F7FF"/>
</g>
<path d="M47.9525 10.1183H42.5938V7.64844H56.2129V10.1183H50.8306V26.3877H47.9525V10.1183Z" fill="#0E0E52"/>
<path d="M99.0039 23.9626L100.691 21.9248C102.006 23.2745 103.792 24.1401 105.554 24.1401C107.761 24.1401 109.002 23.0705 109.002 21.4938C109.002 19.7879 107.761 19.2532 106.074 18.489L103.543 17.3687C101.783 16.6046 99.8226 15.1789 99.8226 12.4543C99.8226 9.50034 102.353 7.28516 105.826 7.28516C106.855 7.28725 107.872 7.49752 108.822 7.90393C109.771 8.31034 110.633 8.90493 111.358 9.65358L109.845 11.538C108.705 10.4939 107.439 9.85758 105.826 9.85758C103.966 9.85758 102.75 10.7739 102.75 12.2757C102.75 13.88 104.213 14.4909 105.702 15.1028L108.208 16.1978C110.366 17.1394 111.93 18.5133 111.93 21.2644C111.93 24.269 109.498 26.7136 105.504 26.7136C104.297 26.7199 103.101 26.4799 101.985 26.0077C100.869 25.5354 99.8557 24.8402 99.0039 23.9626Z" fill="#0E0E52"/>
<path d="M72.5837 26.3403L67.8566 18.7796H64.4929V26.3403H61.2109V7.60547H68.0285C72.3258 7.60547 75.5552 8.98042 75.5552 13.0271C75.5552 15.9293 73.8288 17.6582 71.1978 18.3981L76.29 26.3371L72.5837 26.3403ZM64.4929 16.4166H67.6332C70.6606 16.4166 72.3011 15.2963 72.3011 13.0305C72.3011 10.7645 70.6606 9.97613 67.6332 9.97613H64.4929V16.4166Z" fill="#0E0E52"/>
<path fill-rule="evenodd" clip-rule="evenodd" d="M93.7354 7.65234V14.1568H90.8399V10.0186H82.1016V7.65234H93.7354ZM93.7354 19.8789V26.4164H82.1016V24.0501H90.8399V19.8789H93.7354ZM89.5527 15.8569V18.2343H84.4591V15.8569H89.5527Z" fill="#0E0E52"/>
</g>
<defs>
<clipPath id="clip0_857_7180">
<rect width="112" height="34" fill="white"/>
</clipPath>
</defs>
</svg>
