<svg width="212" height="132" viewBox="0 0 212 132" fill="none" xmlns="http://www.w3.org/2000/svg">
<rect width="212" height="132" rx="24" fill="url(#paint0_linear_128_1494)"/>
<rect x="0.5" y="0.5" width="211" height="131" rx="23.5" stroke="#0A66C2" stroke-opacity="0.8"/>
<g clip-path="url(#clip0_128_1494)">
<path d="M126.457 42H85.5433C84.6036 42 83.7023 42.3733 83.0378 43.0378C82.3733 43.7023 82 44.6036 82 45.5433V86.4567C82 87.3964 82.3733 88.2977 83.0378 88.9622C83.7023 89.6267 84.6036 90 85.5433 90H126.457C127.396 90 128.298 89.6267 128.962 88.9622C129.627 88.2977 130 87.3964 130 86.4567V45.5433C130 44.6036 129.627 43.7023 128.962 43.0378C128.298 42.3733 127.396 42 126.457 42Z" fill="#F4F2EF"/>
<path d="M126.457 42H85.5433C84.6036 42 83.7023 42.3733 83.0378 43.0378C82.3733 43.7023 82 44.6036 82 45.5433V86.4567C82 87.3964 82.3733 88.2977 83.0378 88.9622C83.7023 89.6267 84.6036 90 85.5433 90H126.457C127.396 90 128.298 89.6267 128.962 88.9622C129.627 88.2977 130 87.3964 130 86.4567V45.5433C130 44.6036 129.627 43.7023 128.962 43.0378C128.298 42.3733 127.396 42 126.457 42ZM96.3067 82.89H89.09V59.9667H96.3067V82.89ZM92.6933 56.79C91.8747 56.7854 91.0758 56.5384 90.3975 56.0802C89.7191 55.622 89.1917 54.9731 88.8818 54.2154C88.5718 53.4577 88.4933 52.6252 88.6561 51.8229C88.8188 51.0206 89.2156 50.2846 89.7963 49.7076C90.377 49.1306 91.1156 48.7385 91.9189 48.5809C92.7222 48.4233 93.5542 48.5072 94.3099 48.822C95.0656 49.1368 95.7111 49.6683 96.1649 50.3496C96.6188 51.0309 96.8606 51.8314 96.86 52.65C96.8677 53.1981 96.765 53.7421 96.558 54.2496C96.351 54.7571 96.044 55.2178 95.6551 55.6041C95.2663 55.9905 94.8037 56.2946 94.2948 56.4983C93.786 56.702 93.2413 56.8012 92.6933 56.79ZM122.907 82.91H115.693V70.3867C115.693 66.6933 114.123 65.5533 112.097 65.5533C109.957 65.5533 107.857 67.1667 107.857 70.48V82.91H100.64V59.9833H107.58V63.16H107.673C108.37 61.75 110.81 59.34 114.533 59.34C118.56 59.34 122.91 61.73 122.91 68.73L122.907 82.91Z" fill="#0A66C2"/>
</g>
<defs>
<linearGradient id="paint0_linear_128_1494" x1="106" y1="0" x2="106" y2="132" gradientUnits="userSpaceOnUse">
<stop stop-color="#0A66C2" stop-opacity="0"/>
<stop offset="1" stop-color="#0A66C2" stop-opacity="0.6"/>
</linearGradient>
<clipPath id="clip0_128_1494">
<rect width="48" height="48" fill="white" transform="translate(82 42)"/>
</clipPath>
</defs>
</svg>
