<svg width="212" height="132" viewBox="0 0 212 132" fill="none" xmlns="http://www.w3.org/2000/svg">
<rect width="212" height="132" rx="24" fill="url(#paint0_linear_128_1498)"/>
<rect x="0.5" y="0.5" width="211" height="131" rx="23.5" stroke="#FF0302" stroke-opacity="0.7"/>
<g clip-path="url(#clip0_128_1498)">
<path d="M129.044 54.3708C128.773 53.3496 128.238 52.4177 127.493 51.6681C126.748 50.9186 125.82 50.3778 124.8 50.0999C121.048 49.0908 106.048 49.0908 106.048 49.0908C106.048 49.0908 91.0476 49.0908 87.2949 50.0999C86.2755 50.3778 85.3469 50.9186 84.6022 51.6681C83.8574 52.4177 83.3226 53.3496 83.0512 54.3708C82.0476 58.1399 82.0476 65.9999 82.0476 65.9999C82.0476 65.9999 82.0476 73.8599 83.0512 77.629C83.3226 78.6502 83.8574 79.5822 84.6022 80.3317C85.3469 81.0812 86.2755 81.622 87.2949 81.8999C91.0476 82.909 106.048 82.909 106.048 82.909C106.048 82.909 121.048 82.909 124.8 81.8999C125.82 81.622 126.748 81.0812 127.493 80.3317C128.238 79.5822 128.773 78.6502 129.044 77.629C130.048 73.8599 130.048 65.9999 130.048 65.9999C130.048 65.9999 130.048 58.1399 129.044 54.3708Z" fill="#FF0302"/>
<path d="M101.139 73.1373V58.8628L113.684 66.0001L101.139 73.1373Z" fill="#FEFEFE"/>
</g>
<defs>
<linearGradient id="paint0_linear_128_1498" x1="106" y1="0" x2="106" y2="132" gradientUnits="userSpaceOnUse">
<stop stop-color="#FF0302" stop-opacity="0"/>
<stop offset="1" stop-color="#FF0302" stop-opacity="0.6"/>
</linearGradient>
<clipPath id="clip0_128_1498">
<rect width="48" height="48" fill="white" transform="translate(82 42)"/>
</clipPath>
</defs>
</svg>
